<svg width="599" height="567" viewBox="0 0 599 567" fill="none" xmlns="http://www.w3.org/2000/svg">
<path d="M515.303 557.725C523.091 558.922 531.038 558.574 538.691 556.7C546.345 554.827 553.554 551.464 559.907 546.804C566.261 542.144 571.634 536.278 575.721 529.541C579.808 522.804 582.527 515.329 583.725 507.541L524.422 498.422L515.303 557.725Z" fill="#F3B500"/>
<circle cx="52" cy="427" r="4" fill="#02EC87"/>
<circle cx="68" cy="427" r="4" fill="#02EC87"/>
<circle cx="84" cy="427" r="4" fill="#02EC87"/>
<circle cx="52" cy="439" r="4" fill="#02EC87"/>
<circle cx="68" cy="439" r="4" fill="#02EC87"/>
<circle cx="84" cy="439" r="4" fill="#02EC87"/>
<circle cx="52" cy="451" r="4" fill="#02EC87"/>
<circle cx="68" cy="451" r="4" fill="#02EC87"/>
<circle cx="84" cy="451" r="4" fill="#02EC87"/>
<circle cx="52" cy="463" r="4" fill="#02EC87"/>
<circle cx="68" cy="463" r="4" fill="#02EC87"/>
<circle cx="84" cy="463" r="4" fill="#02EC87"/>
<circle cx="52" cy="475" r="4" fill="#02EC87"/>
<circle cx="68" cy="475" r="4" fill="#02EC87"/>
<circle cx="84" cy="475" r="4" fill="#02EC87"/>
<circle cx="52" cy="487" r="4" fill="#02EC87"/>
<circle cx="68" cy="487" r="4" fill="#02EC87"/>
<circle cx="84" cy="487" r="4" fill="#02EC87"/>
<circle cx="52" cy="499" r="4" fill="#02EC87"/>
<circle cx="68" cy="499" r="4" fill="#02EC87"/>
<circle cx="84" cy="499" r="4" fill="#02EC87"/>
<circle cx="52" cy="511" r="4" fill="#02EC87"/>
<circle cx="68" cy="511" r="4" fill="#02EC87"/>
<circle cx="84" cy="511" r="4" fill="#02EC87"/>
<circle cx="52" cy="523" r="4" fill="#02EC87"/>
<circle cx="68" cy="523" r="4" fill="#02EC87"/>
<circle cx="84" cy="523" r="4" fill="#02EC87"/>
<circle cx="52" cy="535" r="4" fill="#02EC87"/>
<circle cx="68" cy="535" r="4" fill="#02EC87"/>
<circle cx="84" cy="535" r="4" fill="#02EC87"/>
<circle cx="52" cy="547" r="4" fill="#02EC87"/>
<circle cx="68" cy="547" r="4" fill="#02EC87"/>
<circle cx="84" cy="547" r="4" fill="#02EC87"/>
<circle cx="4" cy="427" r="4" fill="#02EC87"/>
<circle cx="20" cy="427" r="4" fill="#02EC87"/>
<circle cx="36" cy="427" r="4" fill="#02EC87"/>
<circle cx="4" cy="439" r="4" fill="#02EC87"/>
<circle cx="20" cy="439" r="4" fill="#02EC87"/>
<circle cx="36" cy="439" r="4" fill="#02EC87"/>
<circle cx="4" cy="451" r="4" fill="#02EC87"/>
<circle cx="20" cy="451" r="4" fill="#02EC87"/>
<circle cx="36" cy="451" r="4" fill="#02EC87"/>
<circle cx="4" cy="463" r="4" fill="#02EC87"/>
<circle cx="20" cy="463" r="4" fill="#02EC87"/>
<circle cx="36" cy="463" r="4" fill="#02EC87"/>
<circle cx="4" cy="475" r="4" fill="#02EC87"/>
<circle cx="20" cy="475" r="4" fill="#02EC87"/>
<circle cx="36" cy="475" r="4" fill="#02EC87"/>
<circle cx="4" cy="487" r="4" fill="#02EC87"/>
<circle cx="20" cy="487" r="4" fill="#02EC87"/>
<circle cx="36" cy="487" r="4" fill="#02EC87"/>
<circle cx="4" cy="499" r="4" fill="#02EC87"/>
<circle cx="20" cy="499" r="4" fill="#02EC87"/>
<circle cx="36" cy="499" r="4" fill="#02EC87"/>
<circle cx="4" cy="511" r="4" fill="#02EC87"/>
<circle cx="20" cy="511" r="4" fill="#02EC87"/>
<circle cx="36" cy="511" r="4" fill="#02EC87"/>
<circle cx="4" cy="523" r="4" fill="#02EC87"/>
<circle cx="20" cy="523" r="4" fill="#02EC87"/>
<circle cx="36" cy="523" r="4" fill="#02EC87"/>
<circle cx="4" cy="535" r="4" fill="#02EC87"/>
<circle cx="20" cy="535" r="4" fill="#02EC87"/>
<circle cx="36" cy="535" r="4" fill="#02EC87"/>
<circle cx="4" cy="547" r="4" fill="#02EC87"/>
<circle cx="20" cy="547" r="4" fill="#02EC87"/>
<circle cx="36" cy="547" r="4" fill="#02EC87"/>
<circle cx="563" cy="4" r="4" fill="#02EC87"/>
<circle cx="579" cy="4" r="4" fill="#02EC87"/>
<circle cx="595" cy="4" r="4" fill="#02EC87"/>
<circle cx="563" cy="16" r="4" fill="#02EC87"/>
<circle cx="579" cy="16" r="4" fill="#02EC87"/>
<circle cx="595" cy="16" r="4" fill="#02EC87"/>
<circle cx="563" cy="28" r="4" fill="#02EC87"/>
<circle cx="579" cy="28" r="4" fill="#02EC87"/>
<circle cx="595" cy="28" r="4" fill="#02EC87"/>
<circle cx="563" cy="40" r="4" fill="#02EC87"/>
<circle cx="579" cy="40" r="4" fill="#02EC87"/>
<circle cx="595" cy="40" r="4" fill="#02EC87"/>
<circle cx="563" cy="52" r="4" fill="#02EC87"/>
<circle cx="579" cy="52" r="4" fill="#02EC87"/>
<circle cx="595" cy="52" r="4" fill="#02EC87"/>
<circle cx="563" cy="64" r="4" fill="#02EC87"/>
<circle cx="579" cy="64" r="4" fill="#02EC87"/>
<circle cx="595" cy="64" r="4" fill="#02EC87"/>
<circle cx="563" cy="76" r="4" fill="#02EC87"/>
<circle cx="579" cy="76" r="4" fill="#02EC87"/>
<circle cx="595" cy="76" r="4" fill="#02EC87"/>
<circle cx="563" cy="88" r="4" fill="#02EC87"/>
<circle cx="579" cy="88" r="4" fill="#02EC87"/>
<circle cx="595" cy="88" r="4" fill="#02EC87"/>
<circle cx="563" cy="100" r="4" fill="#02EC87"/>
<circle cx="579" cy="100" r="4" fill="#02EC87"/>
<circle cx="595" cy="100" r="4" fill="#02EC87"/>
<circle cx="563" cy="112" r="4" fill="#02EC87"/>
<circle cx="579" cy="112" r="4" fill="#02EC87"/>
<circle cx="595" cy="112" r="4" fill="#02EC87"/>
<circle cx="563" cy="124" r="4" fill="#02EC87"/>
<circle cx="579" cy="124" r="4" fill="#02EC87"/>
<circle cx="595" cy="124" r="4" fill="#02EC87"/>
</svg>
