<svg width="613" height="324" viewBox="0 0 613 324" fill="none" xmlns="http://www.w3.org/2000/svg">
<path d="M65.28 24.752L54.464 70H40.896L33.664 39.728L26.368 70H12.8L1.984 24.752H13.888L19.712 57.52L27.648 24.752H39.616L47.552 57.52L53.44 24.752H65.28ZM104.946 51.184C104.946 52.08 104.839 53.0613 104.626 54.128H79.858C79.986 56.816 80.6687 58.7573 81.906 59.952C83.1433 61.104 84.722 61.68 86.642 61.68C88.2633 61.68 89.6073 61.2747 90.674 60.464C91.7407 59.6533 92.4447 58.608 92.786 57.328H104.37C103.901 59.8453 102.877 62.1067 101.298 64.112C99.7193 66.0747 97.714 67.632 95.282 68.784C92.85 69.8933 90.1407 70.448 87.154 70.448C83.6553 70.448 80.5407 69.7227 77.81 68.272C75.122 66.7787 73.01 64.6453 71.474 61.872C69.938 59.0987 69.17 55.856 69.17 52.144C69.17 48.3893 69.9167 45.1467 71.41 42.416C72.946 39.6427 75.0793 37.5307 77.81 36.08C80.5407 34.5867 83.6553 33.84 87.154 33.84C90.6953 33.84 93.81 34.5653 96.498 36.016C99.186 37.4667 101.255 39.5147 102.706 42.16C104.199 44.7627 104.946 47.7707 104.946 51.184ZM93.874 49.52C93.9167 47.1733 93.2767 45.424 91.954 44.272C90.674 43.0773 89.074 42.48 87.154 42.48C85.1487 42.48 83.4847 43.0773 82.162 44.272C80.8393 45.4667 80.0927 47.216 79.922 49.52H93.874ZM137.032 33.84C139.762 33.84 142.109 34.4587 144.072 35.696C146.034 36.9333 147.485 38.6187 148.424 40.752V34.288H159.304V70H148.424V63.536C147.485 65.6693 146.034 67.3547 144.072 68.592C142.109 69.8293 139.762 70.448 137.032 70.448C134.088 70.448 131.442 69.7227 129.095 68.272C126.792 66.7787 124.957 64.6453 123.592 61.872C122.269 59.0987 121.608 55.856 121.608 52.144C121.608 48.3893 122.269 45.1467 123.592 42.416C124.957 39.6427 126.792 37.5307 129.095 36.08C131.442 34.5867 134.088 33.84 137.032 33.84ZM140.552 43.44C138.205 43.44 136.306 44.208 134.856 45.744C133.448 47.28 132.744 49.4133 132.744 52.144C132.744 54.8747 133.448 57.008 134.856 58.544C136.306 60.08 138.205 60.848 140.552 60.848C142.856 60.848 144.733 60.0587 146.184 58.48C147.677 56.9013 148.424 54.7893 148.424 52.144C148.424 49.456 147.677 47.344 146.184 45.808C144.733 44.2293 142.856 43.44 140.552 43.44ZM177.783 41.008C179.148 38.832 180.897 37.104 183.031 35.824C185.207 34.544 187.553 33.904 190.071 33.904V45.616H186.935C184.033 45.616 181.772 46.2347 180.151 47.472C178.572 48.7093 177.783 50.8 177.783 53.744V70H166.839V34.288H177.783V41.008ZM228.571 51.184C228.571 52.08 228.464 53.0613 228.251 54.128H203.483C203.611 56.816 204.294 58.7573 205.531 59.952C206.768 61.104 208.347 61.68 210.267 61.68C211.888 61.68 213.232 61.2747 214.299 60.464C215.366 59.6533 216.07 58.608 216.411 57.328H227.995C227.526 59.8453 226.502 62.1067 224.923 64.112C223.344 66.0747 221.339 67.632 218.907 68.784C216.475 69.8933 213.766 70.448 210.779 70.448C207.28 70.448 204.166 69.7227 201.435 68.272C198.747 66.7787 196.635 64.6453 195.099 61.872C193.563 59.0987 192.795 55.856 192.795 52.144C192.795 48.3893 193.542 45.1467 195.035 42.416C196.571 39.6427 198.704 37.5307 201.435 36.08C204.166 34.5867 207.28 33.84 210.779 33.84C214.32 33.84 217.435 34.5653 220.123 36.016C222.811 37.4667 224.88 39.5147 226.331 42.16C227.824 44.7627 228.571 47.7707 228.571 51.184ZM217.499 49.52C217.542 47.1733 216.902 45.424 215.579 44.272C214.299 43.0773 212.699 42.48 210.779 42.48C208.774 42.48 207.11 43.0773 205.787 44.272C204.464 45.4667 203.718 47.216 203.547 49.52H217.499ZM267.313 60.592V70H262.385C258.203 70 254.939 68.976 252.593 66.928C250.289 64.8373 249.137 61.4027 249.137 56.624V43.504H244.337V34.288H249.137V25.52H260.081V34.288H267.249V43.504H260.081V56.816C260.081 58.224 260.358 59.2053 260.913 59.76C261.51 60.3147 262.491 60.592 263.857 60.592H267.313ZM296.12 33.904C300.216 33.904 303.458 35.2693 305.847 38C308.28 40.7307 309.496 44.4853 309.496 49.264V70H298.552V50.544C298.552 48.1547 297.912 46.2987 296.632 44.976C295.394 43.6107 293.73 42.928 291.64 42.928C289.421 42.928 287.65 43.632 286.328 45.04C285.048 46.448 284.408 48.4533 284.408 51.056V70H273.464V22.64H284.408V40.816C285.432 38.6827 286.946 36.9973 288.952 35.76C291 34.5227 293.389 33.904 296.12 33.904ZM350.634 51.184C350.634 52.08 350.527 53.0613 350.314 54.128H325.546C325.674 56.816 326.356 58.7573 327.594 59.952C328.831 61.104 330.41 61.68 332.33 61.68C333.951 61.68 335.295 61.2747 336.362 60.464C337.428 59.6533 338.132 58.608 338.474 57.328H350.058C349.588 59.8453 348.564 62.1067 346.986 64.112C345.407 66.0747 343.402 67.632 340.97 68.784C338.538 69.8933 335.828 70.448 332.842 70.448C329.343 70.448 326.228 69.7227 323.498 68.272C320.81 66.7787 318.698 64.6453 317.161 61.872C315.626 59.0987 314.858 55.856 314.858 52.144C314.858 48.3893 315.604 45.1467 317.098 42.416C318.634 39.6427 320.767 37.5307 323.498 36.08C326.228 34.5867 329.343 33.84 332.842 33.84C336.383 33.84 339.498 34.5653 342.186 36.016C344.874 37.4667 346.943 39.5147 348.394 42.16C349.887 44.7627 350.634 47.7707 350.634 51.184ZM339.562 49.52C339.604 47.1733 338.964 45.424 337.642 44.272C336.362 43.0773 334.762 42.48 332.842 42.48C330.836 42.48 329.172 43.0773 327.85 44.272C326.527 45.4667 325.78 47.216 325.61 49.52H339.562ZM391.807 33.904C395.903 33.904 399.146 35.2693 401.535 38C403.967 40.7307 405.183 44.4853 405.183 49.264V70H394.239V50.544C394.239 48.1547 393.599 46.2987 392.319 44.976C391.082 43.6107 389.418 42.928 387.327 42.928C385.108 42.928 383.338 43.632 382.015 45.04C380.735 46.448 380.095 48.4533 380.095 51.056V70H369.151V22.64H380.095V40.816C381.119 38.6827 382.634 36.9973 384.639 35.76C386.687 34.5227 389.076 33.904 391.807 33.904ZM429.105 33.84C432.646 33.84 435.804 34.5867 438.577 36.08C441.393 37.5307 443.59 39.6427 445.169 42.416C446.79 45.1893 447.601 48.432 447.601 52.144C447.601 55.856 446.79 59.0987 445.169 61.872C443.59 64.6453 441.393 66.7787 438.577 68.272C435.804 69.7227 432.646 70.448 429.105 70.448C425.564 70.448 422.385 69.7227 419.569 68.272C416.753 66.7787 414.534 64.6453 412.913 61.872C411.334 59.0987 410.545 55.856 410.545 52.144C410.545 48.432 411.334 45.1893 412.913 42.416C414.534 39.6427 416.753 37.5307 419.569 36.08C422.385 34.5867 425.564 33.84 429.105 33.84ZM429.105 43.312C427.014 43.312 425.244 44.08 423.793 45.616C422.385 47.1093 421.681 49.2853 421.681 52.144C421.681 55.0027 422.385 57.1787 423.793 58.672C425.244 60.1653 427.014 60.912 429.105 60.912C431.196 60.912 432.945 60.1653 434.353 58.672C435.761 57.1787 436.465 55.0027 436.465 52.144C436.465 49.2853 435.761 47.1093 434.353 45.616C432.945 44.08 431.196 43.312 429.105 43.312ZM499.548 33.904C503.943 33.904 507.399 35.2693 509.916 38C512.433 40.688 513.692 44.4427 513.692 49.264V70H502.812V50.544C502.812 48.2827 502.193 46.5333 500.956 45.296C499.761 44.016 498.119 43.376 496.028 43.376C493.852 43.376 492.124 44.0587 490.844 45.424C489.607 46.7467 488.988 48.624 488.988 51.056V70H478.044V50.544C478.044 48.2827 477.447 46.5333 476.252 45.296C475.057 44.016 473.415 43.376 471.324 43.376C469.148 43.376 467.42 44.0373 466.14 45.36C464.86 46.6827 464.22 48.5813 464.22 51.056V70H453.276V34.288H464.22V40.368C465.159 38.3627 466.588 36.784 468.508 35.632C470.471 34.48 472.753 33.904 475.356 33.904C478.087 33.904 480.497 34.544 482.588 35.824C484.679 37.0613 486.257 38.8533 487.324 41.2C488.561 38.9813 490.247 37.2107 492.38 35.888C494.556 34.5653 496.945 33.904 499.548 33.904ZM554.884 51.184C554.884 52.08 554.777 53.0613 554.564 54.128H529.796C529.924 56.816 530.606 58.7573 531.844 59.952C533.081 61.104 534.66 61.68 536.58 61.68C538.201 61.68 539.545 61.2747 540.612 60.464C541.678 59.6533 542.382 58.608 542.724 57.328H554.308C553.838 59.8453 552.814 62.1067 551.236 64.112C549.657 66.0747 547.652 67.632 545.22 68.784C542.788 69.8933 540.078 70.448 537.092 70.448C533.593 70.448 530.478 69.7227 527.748 68.272C525.06 66.7787 522.948 64.6453 521.411 61.872C519.876 59.0987 519.108 55.856 519.108 52.144C519.108 48.3893 519.854 45.1467 521.348 42.416C522.884 39.6427 525.017 37.5307 527.748 36.08C530.478 34.5867 533.593 33.84 537.092 33.84C540.633 33.84 543.748 34.5653 546.436 36.016C549.124 37.4667 551.193 39.5147 552.644 42.16C554.137 44.7627 554.884 47.7707 554.884 51.184ZM543.812 49.52C543.854 47.1733 543.214 45.424 541.892 44.272C540.612 43.0773 539.012 42.48 537.092 42.48C535.086 42.48 533.422 43.0773 532.1 44.272C530.777 45.4667 530.03 47.216 529.86 49.52H543.812ZM20.48 129.84C24.0213 129.84 27.1787 130.587 29.952 132.08C32.768 133.531 34.9653 135.643 36.544 138.416C38.1653 141.189 38.976 144.432 38.976 148.144C38.976 151.856 38.1653 155.099 36.544 157.872C34.9653 160.645 32.768 162.779 29.952 164.272C27.1787 165.723 24.0213 166.448 20.48 166.448C16.9387 166.448 13.76 165.723 10.944 164.272C8.128 162.779 5.90933 160.645 4.288 157.872C2.70933 155.099 1.92 151.856 1.92 148.144C1.92 144.432 2.70933 141.189 4.288 138.416C5.90933 135.643 8.128 133.531 10.944 132.08C13.76 130.587 16.9387 129.84 20.48 129.84ZM20.48 139.312C18.3893 139.312 16.6187 140.08 15.168 141.616C13.76 143.109 13.056 145.285 13.056 148.144C13.056 151.003 13.76 153.179 15.168 154.672C16.6187 156.165 18.3893 156.912 20.48 156.912C22.5707 156.912 24.32 156.165 25.728 154.672C27.136 153.179 27.84 151.003 27.84 148.144C27.84 145.285 27.136 143.109 25.728 141.616C24.32 140.08 22.5707 139.312 20.48 139.312ZM62.187 125.424C60.395 125.424 59.0937 125.808 58.283 126.576C57.4723 127.344 57.0243 128.581 56.939 130.288H63.403V139.504H56.939V166H45.995V139.504H41.707V130.288H45.995V129.904C45.995 125.467 47.275 122.053 49.835 119.664C52.4377 117.232 56.1923 116.016 61.099 116.016C62.123 116.016 62.891 116.037 63.403 116.08V125.488L62.187 125.424ZM98.562 125.424C96.77 125.424 95.4687 125.808 94.658 126.576C93.8473 127.344 93.3993 128.581 93.314 130.288H99.778V139.504H93.314V166H82.37V139.504H78.082V130.288H82.37V129.904C82.37 125.467 83.65 122.053 86.21 119.664C88.8127 117.232 92.5673 116.016 97.474 116.016C98.498 116.016 99.266 116.037 99.778 116.08V125.488L98.562 125.424ZM103.565 120.24C103.565 118.576 104.162 117.211 105.357 116.144C106.551 115.035 108.13 114.48 110.093 114.48C112.055 114.48 113.634 115.035 114.829 116.144C116.023 117.211 116.621 118.576 116.621 120.24C116.621 121.861 116.023 123.227 114.829 124.336C113.634 125.403 112.055 125.936 110.093 125.936C108.13 125.936 106.551 125.403 105.357 124.336C104.162 123.227 103.565 121.861 103.565 120.24ZM115.533 130.288V166H104.589V130.288H115.533ZM145.745 129.904C149.841 129.904 153.083 131.269 155.472 134C157.905 136.731 159.121 140.485 159.121 145.264V166H148.177V146.544C148.177 144.155 147.537 142.299 146.257 140.976C145.019 139.611 143.355 138.928 141.265 138.928C139.046 138.928 137.275 139.632 135.953 141.04C134.673 142.448 134.033 144.453 134.033 147.056V166H123.089V130.288H134.033V136.816C135.057 134.683 136.571 132.997 138.577 131.76C140.625 130.523 143.014 129.904 145.745 129.904ZM179.907 129.84C182.637 129.84 184.984 130.459 186.947 131.696C188.909 132.933 190.36 134.619 191.299 136.752V130.288H202.179V166H191.299V159.536C190.36 161.669 188.909 163.355 186.947 164.592C184.984 165.829 182.637 166.448 179.907 166.448C176.963 166.448 174.317 165.723 171.97 164.272C169.667 162.779 167.832 160.645 166.467 157.872C165.144 155.099 164.483 151.856 164.483 148.144C164.483 144.389 165.144 141.147 166.467 138.416C167.832 135.643 169.667 133.531 171.97 132.08C174.317 130.587 176.963 129.84 179.907 129.84ZM183.427 139.44C181.08 139.44 179.181 140.208 177.731 141.744C176.323 143.28 175.619 145.413 175.619 148.144C175.619 150.875 176.323 153.008 177.731 154.544C179.181 156.08 181.08 156.848 183.427 156.848C185.731 156.848 187.608 156.059 189.059 154.48C190.552 152.901 191.299 150.789 191.299 148.144C191.299 145.456 190.552 143.344 189.059 141.808C187.608 140.229 185.731 139.44 183.427 139.44ZM232.37 129.904C236.466 129.904 239.708 131.269 242.097 134C244.53 136.731 245.746 140.485 245.746 145.264V166H234.802V146.544C234.802 144.155 234.162 142.299 232.882 140.976C231.644 139.611 229.98 138.928 227.89 138.928C225.671 138.928 223.9 139.632 222.578 141.04C221.298 142.448 220.658 144.453 220.658 147.056V166H209.714V130.288H220.658V136.816C221.682 134.683 223.196 132.997 225.202 131.76C227.25 130.523 229.639 129.904 232.37 129.904ZM269.092 129.84C273.7 129.84 277.561 131.12 280.676 133.68C283.79 136.197 285.753 139.675 286.564 144.112H274.98C274.638 142.576 273.934 141.381 272.868 140.528C271.801 139.675 270.457 139.248 268.836 139.248C266.916 139.248 265.337 140.016 264.1 141.552C262.862 143.045 262.244 145.243 262.244 148.144C262.244 151.045 262.862 153.264 264.1 154.8C265.337 156.293 266.916 157.04 268.836 157.04C270.457 157.04 271.801 156.613 272.868 155.76C273.934 154.907 274.638 153.712 274.98 152.176H286.564C285.753 156.613 283.79 160.112 280.676 162.672C277.561 165.189 273.7 166.448 269.092 166.448C265.593 166.448 262.478 165.723 259.748 164.272C257.06 162.779 254.948 160.645 253.411 157.872C251.876 155.099 251.108 151.856 251.108 148.144C251.108 144.389 251.854 141.147 253.348 138.416C254.884 135.643 257.017 133.531 259.748 132.08C262.478 130.587 265.593 129.84 269.092 129.84ZM326.196 147.184C326.196 148.08 326.089 149.061 325.876 150.128H301.108C301.236 152.816 301.919 154.757 303.156 155.952C304.393 157.104 305.972 157.68 307.892 157.68C309.513 157.68 310.857 157.275 311.924 156.464C312.991 155.653 313.695 154.608 314.036 153.328H325.62C325.151 155.845 324.127 158.107 322.548 160.112C320.969 162.075 318.964 163.632 316.532 164.784C314.1 165.893 311.391 166.448 308.404 166.448C304.905 166.448 301.791 165.723 299.06 164.272C296.372 162.779 294.26 160.645 292.724 157.872C291.188 155.099 290.42 151.856 290.42 148.144C290.42 144.389 291.167 141.147 292.66 138.416C294.196 135.643 296.329 133.531 299.06 132.08C301.791 130.587 304.905 129.84 308.404 129.84C311.945 129.84 315.06 130.565 317.748 132.016C320.436 133.467 322.505 135.515 323.956 138.16C325.449 140.763 326.196 143.771 326.196 147.184ZM315.124 145.52C315.167 143.173 314.527 141.424 313.204 140.272C311.924 139.077 310.324 138.48 308.404 138.48C306.399 138.48 304.735 139.077 303.412 140.272C302.089 141.467 301.343 143.216 301.172 145.52H315.124ZM341.309 155.056V166H329.981V155.056H341.309Z" fill="#11656F"/>
<path d="M12.456 237.608C12.456 238.408 12.264 239.152 11.88 239.84C11.496 240.528 10.912 241.088 10.128 241.52C9.344 241.952 8.376 242.168 7.224 242.168C6.104 242.168 5.104 241.968 4.224 241.568C3.36 241.152 2.664 240.592 2.136 239.888C1.624 239.168 1.328 238.352 1.248 237.44H3.576C3.624 237.92 3.784 238.392 4.056 238.856C4.344 239.304 4.744 239.68 5.256 239.984C5.784 240.272 6.416 240.416 7.152 240.416C8.112 240.416 8.848 240.16 9.36 239.648C9.872 239.136 10.128 238.48 10.128 237.68C10.128 236.992 9.944 236.432 9.576 236C9.224 235.568 8.784 235.232 8.256 234.992C7.728 234.736 7.008 234.464 6.096 234.176C5.024 233.824 4.16 233.496 3.504 233.192C2.864 232.872 2.312 232.4 1.848 231.776C1.4 231.152 1.176 230.328 1.176 229.304C1.176 228.424 1.384 227.648 1.8 226.976C2.232 226.304 2.84 225.784 3.624 225.416C4.424 225.048 5.36 224.864 6.432 224.864C8.096 224.864 9.416 225.272 10.392 226.088C11.368 226.888 11.936 227.912 12.096 229.16H9.744C9.616 228.488 9.272 227.896 8.712 227.384C8.152 226.872 7.392 226.616 6.432 226.616C5.552 226.616 4.848 226.848 4.32 227.312C3.792 227.76 3.528 228.4 3.528 229.232C3.528 229.888 3.696 230.424 4.032 230.84C4.384 231.24 4.816 231.56 5.328 231.8C5.84 232.024 6.544 232.28 7.44 232.568C8.528 232.92 9.4 233.256 10.056 233.576C10.728 233.896 11.296 234.384 11.76 235.04C12.224 235.68 12.456 236.536 12.456 237.608ZM21.6806 240.08V242H20.0486C18.7046 242 17.6966 241.68 17.0246 241.04C16.3686 240.4 16.0406 239.328 16.0406 237.824V230.72H14.0726V228.824H16.0406V225.536H18.2486V228.824H21.6566V230.72H18.2486V237.872C18.2486 238.72 18.4006 239.304 18.7046 239.624C19.0246 239.928 19.5686 240.08 20.3366 240.08H21.6806ZM29.7458 228.656C31.0258 228.656 32.1058 228.976 32.9858 229.616C33.8818 230.256 34.5058 231.112 34.8578 232.184V228.824H37.0418V242H34.8578V238.64C34.5058 239.712 33.8818 240.568 32.9858 241.208C32.1058 241.848 31.0258 242.168 29.7458 242.168C28.5778 242.168 27.5378 241.896 26.6258 241.352C25.7138 240.808 24.9938 240.032 24.4658 239.024C23.9538 238 23.6978 236.8 23.6978 235.424C23.6978 234.048 23.9538 232.848 24.4658 231.824C24.9938 230.8 25.7138 230.016 26.6258 229.472C27.5378 228.928 28.5778 228.656 29.7458 228.656ZM30.3698 230.6C29.0258 230.6 27.9458 231.032 27.1298 231.896C26.3298 232.744 25.9298 233.92 25.9298 235.424C25.9298 236.928 26.3298 238.112 27.1298 238.976C27.9458 239.824 29.0258 240.248 30.3698 240.248C31.2338 240.248 32.0018 240.048 32.6738 239.648C33.3618 239.248 33.8978 238.688 34.2818 237.968C34.6658 237.232 34.8578 236.384 34.8578 235.424C34.8578 234.464 34.6658 233.616 34.2818 232.88C33.8978 232.144 33.3618 231.584 32.6738 231.2C32.0018 230.8 31.2338 230.6 30.3698 230.6ZM42.7016 231.488C43.1336 230.576 43.7656 229.872 44.5976 229.376C45.4296 228.864 46.4216 228.608 47.5736 228.608V230.984H46.9016C45.6696 230.984 44.6616 231.304 43.8776 231.944C43.0936 232.568 42.7016 233.608 42.7016 235.064V242H40.5176V228.824H42.7016V231.488ZM56.0166 240.08V242H54.3846C53.0406 242 52.0326 241.68 51.3606 241.04C50.7046 240.4 50.3766 239.328 50.3766 237.824V230.72H48.4086V228.824H50.3766V225.536H52.5846V228.824H55.9926V230.72H52.5846V237.872C52.5846 238.72 52.7366 239.304 53.0406 239.624C53.3606 239.928 53.9046 240.08 54.6726 240.08H56.0166ZM65.5234 228.824L69.7954 239.192L73.7554 228.824H76.1794L68.3554 248.24H65.8834L68.6194 241.784L63.0754 228.824H65.5234ZM84.1577 228.656C85.4217 228.656 86.5497 228.928 87.5417 229.472C88.5497 230.016 89.3337 230.8 89.8937 231.824C90.4697 232.848 90.7577 234.048 90.7577 235.424C90.7577 236.8 90.4697 238 89.8937 239.024C89.3337 240.032 88.5497 240.808 87.5417 241.352C86.5497 241.896 85.4217 242.168 84.1577 242.168C82.8937 242.168 81.7577 241.896 80.7497 241.352C79.7577 240.808 78.9737 240.032 78.3977 239.024C77.8217 238 77.5337 236.8 77.5337 235.424C77.5337 234.048 77.8217 232.848 78.3977 231.824C78.9737 230.8 79.7577 230.016 80.7497 229.472C81.7577 228.928 82.8937 228.656 84.1577 228.656ZM84.1577 230.576C83.3737 230.576 82.6457 230.752 81.9737 231.104C81.3177 231.456 80.7817 232 80.3657 232.736C79.9657 233.456 79.7657 234.352 79.7657 235.424C79.7657 236.48 79.9657 237.376 80.3657 238.112C80.7817 238.832 81.3177 239.368 81.9737 239.72C82.6457 240.072 83.3737 240.248 84.1577 240.248C84.9417 240.248 85.6617 240.072 86.3177 239.72C86.9897 239.368 87.5257 238.832 87.9257 238.112C88.3417 237.376 88.5497 236.48 88.5497 235.424C88.5497 234.352 88.3417 233.456 87.9257 232.736C87.5257 232 86.9897 231.456 86.3177 231.104C85.6617 230.752 84.9417 230.576 84.1577 230.576ZM105.316 228.824V242H103.132V238.904C102.796 239.976 102.196 240.8 101.332 241.376C100.484 241.936 99.4916 242.216 98.3556 242.216C96.8356 242.216 95.6036 241.728 94.6596 240.752C93.7156 239.76 93.2436 238.344 93.2436 236.504V228.824H95.4276V236.288C95.4276 237.6 95.7636 238.616 96.4356 239.336C97.1076 240.04 98.0196 240.392 99.1716 240.392C100.372 240.392 101.332 240.008 102.052 239.24C102.772 238.456 103.132 237.32 103.132 235.832V228.824H105.316ZM110.999 231.488C111.431 230.576 112.063 229.872 112.895 229.376C113.727 228.864 114.719 228.608 115.871 228.608V230.984H115.199C113.967 230.984 112.959 231.304 112.175 231.944C111.391 232.568 110.999 233.608 110.999 235.064V242H108.815V228.824H110.999V231.488ZM129.787 225.704C128.619 225.688 127.803 225.888 127.339 226.304C126.891 226.72 126.667 227.44 126.667 228.464V228.824H129.787V230.744H126.667V242H124.483V230.744H122.587V228.824H124.483V228.296C124.483 225.144 126.251 223.64 129.787 223.784V225.704ZM131.774 224.96C131.774 224.56 131.91 224.24 132.182 224C132.454 223.744 132.814 223.616 133.262 223.616C133.71 223.616 134.07 223.744 134.342 224C134.614 224.24 134.75 224.56 134.75 224.96C134.75 225.36 134.614 225.688 134.342 225.944C134.07 226.184 133.71 226.304 133.262 226.304C132.814 226.304 132.454 226.184 132.182 225.944C131.91 225.688 131.774 225.36 131.774 224.96ZM134.342 228.824V242H132.158V228.824H134.342ZM144.79 228.608C146.326 228.608 147.566 229.104 148.51 230.096C149.454 231.072 149.926 232.488 149.926 234.344V242H147.742V234.536C147.742 233.224 147.406 232.216 146.734 231.512C146.062 230.808 145.15 230.456 143.998 230.456C142.798 230.456 141.838 230.848 141.118 231.632C140.398 232.4 140.038 233.528 140.038 235.016V242H137.854V228.824H140.038V231.944C140.374 230.872 140.966 230.048 141.814 229.472C142.678 228.896 143.67 228.608 144.79 228.608ZM158.675 228.656C159.955 228.656 161.035 228.976 161.915 229.616C162.811 230.256 163.435 231.112 163.787 232.184V228.824H165.971V242H163.787V238.64C163.435 239.712 162.811 240.568 161.915 241.208C161.035 241.848 159.955 242.168 158.675 242.168C157.507 242.168 156.467 241.896 155.555 241.352C154.643 240.808 153.923 240.032 153.395 239.024C152.883 238 152.627 236.8 152.627 235.424C152.627 234.048 152.883 232.848 153.395 231.824C153.923 230.8 154.643 230.016 155.555 229.472C156.467 228.928 157.507 228.656 158.675 228.656ZM159.299 230.6C157.955 230.6 156.875 231.032 156.059 231.896C155.259 232.744 154.859 233.92 154.859 235.424C154.859 236.928 155.259 238.112 156.059 238.976C156.875 239.824 157.955 240.248 159.299 240.248C160.163 240.248 160.931 240.048 161.603 239.648C162.291 239.248 162.827 238.688 163.211 237.968C163.595 237.232 163.787 236.384 163.787 235.424C163.787 234.464 163.595 233.616 163.211 232.88C162.827 232.144 162.291 231.584 161.603 231.2C160.931 230.8 160.163 230.6 159.299 230.6ZM176.383 228.608C177.919 228.608 179.159 229.104 180.103 230.096C181.047 231.072 181.519 232.488 181.519 234.344V242H179.335V234.536C179.335 233.224 178.999 232.216 178.327 231.512C177.655 230.808 176.743 230.456 175.591 230.456C174.391 230.456 173.431 230.848 172.711 231.632C171.991 232.4 171.631 233.528 171.631 235.016V242H169.447V228.824H171.631V231.944C171.967 230.872 172.559 230.048 173.407 229.472C174.271 228.896 175.263 228.608 176.383 228.608ZM190.701 228.656C192.381 228.656 193.773 229.104 194.877 230C195.981 230.896 196.661 232.096 196.917 233.6H194.613C194.453 232.656 194.013 231.92 193.293 231.392C192.589 230.848 191.709 230.576 190.653 230.576C189.885 230.576 189.181 230.752 188.541 231.104C187.917 231.456 187.413 232 187.029 232.736C186.645 233.456 186.453 234.352 186.453 235.424C186.453 236.496 186.645 237.4 187.029 238.136C187.413 238.856 187.917 239.392 188.541 239.744C189.181 240.096 189.885 240.272 190.653 240.272C191.709 240.272 192.589 240 193.293 239.456C194.013 238.912 194.453 238.168 194.613 237.224H196.917C196.661 238.744 195.981 239.952 194.877 240.848C193.773 241.728 192.381 242.168 190.701 242.168C189.437 242.168 188.317 241.896 187.341 241.352C186.365 240.808 185.597 240.032 185.037 239.024C184.493 238 184.221 236.8 184.221 235.424C184.221 234.048 184.493 232.848 185.037 231.824C185.597 230.8 186.365 230.016 187.341 229.472C188.317 228.928 189.437 228.656 190.701 228.656ZM199.391 224.96C199.391 224.56 199.527 224.24 199.799 224C200.071 223.744 200.431 223.616 200.879 223.616C201.327 223.616 201.687 223.744 201.959 224C202.231 224.24 202.367 224.56 202.367 224.96C202.367 225.36 202.231 225.688 201.959 225.944C201.687 226.184 201.327 226.304 200.879 226.304C200.431 226.304 200.071 226.184 199.799 225.944C199.527 225.688 199.391 225.36 199.391 224.96ZM201.959 228.824V242H199.775V228.824H201.959ZM210.871 228.656C212.151 228.656 213.231 228.976 214.111 229.616C215.007 230.256 215.631 231.112 215.983 232.184V228.824H218.167V242H215.983V238.64C215.631 239.712 215.007 240.568 214.111 241.208C213.231 241.848 212.151 242.168 210.871 242.168C209.703 242.168 208.663 241.896 207.751 241.352C206.839 240.808 206.119 240.032 205.591 239.024C205.079 238 204.823 236.8 204.823 235.424C204.823 234.048 205.079 232.848 205.591 231.824C206.119 230.8 206.839 230.016 207.751 229.472C208.663 228.928 209.703 228.656 210.871 228.656ZM211.495 230.6C210.151 230.6 209.071 231.032 208.255 231.896C207.455 232.744 207.055 233.92 207.055 235.424C207.055 236.928 207.455 238.112 208.255 238.976C209.071 239.824 210.151 240.248 211.495 240.248C212.359 240.248 213.127 240.048 213.799 239.648C214.487 239.248 215.023 238.688 215.407 237.968C215.791 237.232 215.983 236.384 215.983 235.424C215.983 234.464 215.791 233.616 215.407 232.88C215.023 232.144 214.487 231.584 213.799 231.2C213.127 230.8 212.359 230.6 211.495 230.6ZM223.827 224.24V242H221.643V224.24H223.827ZM234.516 226.304C234.068 226.304 233.7 226.184 233.412 225.944C233.14 225.688 233.004 225.36 233.004 224.96C233.004 224.56 233.14 224.24 233.412 224C233.7 223.744 234.068 223.616 234.516 223.616C234.948 223.616 235.3 223.744 235.572 224C235.844 224.24 235.98 224.56 235.98 224.96C235.98 225.36 235.844 225.688 235.572 225.944C235.3 226.184 234.948 226.304 234.516 226.304ZM230.844 246.32H231.756C232.332 246.32 232.748 246.192 233.004 245.936C233.276 245.68 233.412 245.24 233.412 244.616V228.824H235.62V244.688C235.62 247.056 234.42 248.24 232.02 248.24H230.844V246.32ZM245.08 228.656C246.344 228.656 247.472 228.928 248.464 229.472C249.472 230.016 250.256 230.8 250.816 231.824C251.392 232.848 251.68 234.048 251.68 235.424C251.68 236.8 251.392 238 250.816 239.024C250.256 240.032 249.472 240.808 248.464 241.352C247.472 241.896 246.344 242.168 245.08 242.168C243.816 242.168 242.68 241.896 241.672 241.352C240.68 240.808 239.896 240.032 239.32 239.024C238.744 238 238.456 236.8 238.456 235.424C238.456 234.048 238.744 232.848 239.32 231.824C239.896 230.8 240.68 230.016 241.672 229.472C242.68 228.928 243.816 228.656 245.08 228.656ZM245.08 230.576C244.296 230.576 243.568 230.752 242.896 231.104C242.24 231.456 241.704 232 241.288 232.736C240.888 233.456 240.688 234.352 240.688 235.424C240.688 236.48 240.888 237.376 241.288 238.112C241.704 238.832 242.24 239.368 242.896 239.72C243.568 240.072 244.296 240.248 245.08 240.248C245.864 240.248 246.584 240.072 247.24 239.72C247.912 239.368 248.448 238.832 248.848 238.112C249.264 237.376 249.472 236.48 249.472 235.424C249.472 234.352 249.264 233.456 248.848 232.736C248.448 232 247.912 231.456 247.24 231.104C246.584 230.752 245.864 230.576 245.08 230.576ZM266.237 228.824V242H264.053V238.904C263.717 239.976 263.117 240.8 262.253 241.376C261.405 241.936 260.413 242.216 259.277 242.216C257.757 242.216 256.525 241.728 255.581 240.752C254.637 239.76 254.165 238.344 254.165 236.504V228.824H256.349V236.288C256.349 237.6 256.685 238.616 257.357 239.336C258.029 240.04 258.941 240.392 260.093 240.392C261.293 240.392 262.253 240.008 262.973 239.24C263.693 238.456 264.053 237.32 264.053 235.832V228.824H266.237ZM271.92 231.488C272.352 230.576 272.984 229.872 273.816 229.376C274.648 228.864 275.64 228.608 276.792 228.608V230.984H276.12C274.888 230.984 273.88 231.304 273.096 231.944C272.312 232.568 271.92 233.608 271.92 235.064V242H269.736V228.824H271.92V231.488ZM285.883 228.608C287.419 228.608 288.659 229.104 289.603 230.096C290.547 231.072 291.019 232.488 291.019 234.344V242H288.835V234.536C288.835 233.224 288.499 232.216 287.827 231.512C287.155 230.808 286.243 230.456 285.091 230.456C283.891 230.456 282.931 230.848 282.211 231.632C281.491 232.4 281.131 233.528 281.131 235.016V242H278.947V228.824H281.131V231.944C281.467 230.872 282.059 230.048 282.907 229.472C283.771 228.896 284.763 228.608 285.883 228.608ZM306.489 234.68C306.489 235.144 306.457 235.544 306.393 235.88H295.857C295.905 237.384 296.329 238.512 297.129 239.264C297.945 240.016 298.937 240.392 300.105 240.392C301.161 240.392 302.041 240.128 302.745 239.6C303.465 239.056 303.905 238.336 304.065 237.44H306.393C306.233 238.352 305.873 239.168 305.313 239.888C304.769 240.608 304.057 241.168 303.177 241.568C302.297 241.968 301.305 242.168 300.201 242.168C298.937 242.168 297.817 241.896 296.841 241.352C295.865 240.808 295.097 240.032 294.537 239.024C293.993 238 293.721 236.8 293.721 235.424C293.721 234.048 293.993 232.848 294.537 231.824C295.097 230.8 295.865 230.016 296.841 229.472C297.817 228.928 298.937 228.656 300.201 228.656C301.481 228.656 302.593 228.928 303.537 229.472C304.497 230.016 305.225 230.744 305.721 231.656C306.233 232.568 306.489 233.576 306.489 234.68ZM304.281 234.824C304.329 233.848 304.169 233.032 303.801 232.376C303.433 231.72 302.929 231.232 302.289 230.912C301.649 230.592 300.953 230.432 300.201 230.432C299.001 230.432 297.993 230.808 297.177 231.56C296.361 232.296 295.921 233.384 295.857 234.824H304.281ZM310.258 228.824L314.53 239.192L318.49 228.824H320.914L313.09 248.24H310.618L313.354 241.784L307.81 228.824H310.258ZM346.942 228.824L343.15 242H340.798L337.174 231.272L333.526 242H331.15L327.406 228.824H329.614L332.422 239.912L336.07 228.824H338.35L342.022 239.888L344.854 228.824H346.942ZM348.595 224.96C348.595 224.56 348.731 224.24 349.003 224C349.275 223.744 349.635 223.616 350.083 223.616C350.531 223.616 350.891 223.744 351.163 224C351.435 224.24 351.571 224.56 351.571 224.96C351.571 225.36 351.435 225.688 351.163 225.944C350.891 226.184 350.531 226.304 350.083 226.304C349.635 226.304 349.275 226.184 349.003 225.944C348.731 225.688 348.595 225.36 348.595 224.96ZM351.163 228.824V242H348.979V228.824H351.163ZM360.962 240.08V242H359.33C357.986 242 356.978 241.68 356.306 241.04C355.65 240.4 355.322 239.328 355.322 237.824V230.72H353.354V228.824H355.322V225.536H357.53V228.824H360.938V230.72H357.53V237.872C357.53 238.72 357.682 239.304 357.986 239.624C358.306 239.928 358.85 240.08 359.618 240.08H360.962ZM370.563 228.608C372.099 228.608 373.339 229.104 374.283 230.096C375.227 231.072 375.699 232.488 375.699 234.344V242H373.515V234.536C373.515 233.224 373.179 232.216 372.507 231.512C371.835 230.808 370.923 230.456 369.771 230.456C368.571 230.456 367.611 230.848 366.891 231.632C366.171 232.4 365.811 233.528 365.811 235.016V242H363.627V224.24H365.811V231.944C366.147 230.872 366.739 230.048 367.587 229.472C368.451 228.896 369.443 228.608 370.563 228.608ZM397.099 234.68C397.099 235.144 397.067 235.544 397.003 235.88H386.467C386.515 237.384 386.939 238.512 387.739 239.264C388.555 240.016 389.547 240.392 390.715 240.392C391.771 240.392 392.651 240.128 393.355 239.6C394.075 239.056 394.515 238.336 394.675 237.44H397.003C396.843 238.352 396.483 239.168 395.923 239.888C395.379 240.608 394.667 241.168 393.787 241.568C392.907 241.968 391.915 242.168 390.811 242.168C389.547 242.168 388.427 241.896 387.451 241.352C386.475 240.808 385.707 240.032 385.147 239.024C384.603 238 384.331 236.8 384.331 235.424C384.331 234.048 384.603 232.848 385.147 231.824C385.707 230.8 386.475 230.016 387.451 229.472C388.427 228.928 389.547 228.656 390.811 228.656C392.091 228.656 393.203 228.928 394.147 229.472C395.107 230.016 395.835 230.744 396.331 231.656C396.843 232.568 397.099 233.576 397.099 234.68ZM394.891 234.824C394.939 233.848 394.779 233.032 394.411 232.376C394.043 231.72 393.539 231.232 392.899 230.912C392.259 230.592 391.563 230.432 390.811 230.432C389.611 230.432 388.603 230.808 387.787 231.56C386.971 232.296 386.531 233.384 386.467 234.824H394.891ZM405.355 228.656C406.635 228.656 407.715 228.976 408.595 229.616C409.491 230.256 410.115 231.112 410.467 232.184V228.824H412.651V242H410.467V238.64C410.115 239.712 409.491 240.568 408.595 241.208C407.715 241.848 406.635 242.168 405.355 242.168C404.187 242.168 403.147 241.896 402.235 241.352C401.323 240.808 400.603 240.032 400.075 239.024C399.563 238 399.307 236.8 399.307 235.424C399.307 234.048 399.563 232.848 400.075 231.824C400.603 230.8 401.323 230.016 402.235 229.472C403.147 228.928 404.187 228.656 405.355 228.656ZM405.979 230.6C404.635 230.6 403.555 231.032 402.739 231.896C401.939 232.744 401.539 233.92 401.539 235.424C401.539 236.928 401.939 238.112 402.739 238.976C403.555 239.824 404.635 240.248 405.979 240.248C406.843 240.248 407.611 240.048 408.283 239.648C408.971 239.248 409.507 238.688 409.891 237.968C410.275 237.232 410.467 236.384 410.467 235.424C410.467 234.464 410.275 233.616 409.891 232.88C409.507 232.144 408.971 231.584 408.283 231.2C407.611 230.8 406.843 230.6 405.979 230.6ZM420.255 228.656C421.743 228.656 422.935 229.048 423.831 229.832C424.743 230.6 425.295 231.64 425.487 232.952H423.399C423.303 232.168 422.975 231.528 422.415 231.032C421.871 230.52 421.135 230.264 420.207 230.264C419.423 230.264 418.807 230.456 418.359 230.84C417.927 231.208 417.711 231.712 417.711 232.352C417.711 232.832 417.855 233.224 418.143 233.528C418.447 233.816 418.815 234.04 419.247 234.2C419.695 234.344 420.303 234.504 421.071 234.68C422.047 234.904 422.831 235.136 423.423 235.376C424.031 235.6 424.543 235.968 424.959 236.48C425.391 236.992 425.607 237.68 425.607 238.544C425.607 239.616 425.199 240.488 424.383 241.16C423.583 241.832 422.511 242.168 421.167 242.168C419.599 242.168 418.319 241.792 417.327 241.04C416.335 240.288 415.751 239.24 415.575 237.896H417.687C417.767 238.696 418.111 239.344 418.719 239.84C419.343 240.336 420.159 240.584 421.167 240.584C421.919 240.584 422.503 240.392 422.919 240.008C423.351 239.624 423.567 239.12 423.567 238.496C423.567 237.984 423.415 237.576 423.111 237.272C422.807 236.968 422.431 236.736 421.983 236.576C421.535 236.416 420.919 236.248 420.135 236.072C419.159 235.848 418.375 235.624 417.783 235.4C417.207 235.176 416.711 234.824 416.295 234.344C415.895 233.848 415.695 233.184 415.695 232.352C415.695 231.248 416.103 230.36 416.919 229.688C417.735 229 418.847 228.656 420.255 228.656ZM440.645 234.68C440.645 235.144 440.613 235.544 440.549 235.88H430.013C430.061 237.384 430.485 238.512 431.285 239.264C432.101 240.016 433.093 240.392 434.261 240.392C435.317 240.392 436.197 240.128 436.901 239.6C437.621 239.056 438.061 238.336 438.221 237.44H440.549C440.389 238.352 440.029 239.168 439.469 239.888C438.925 240.608 438.213 241.168 437.333 241.568C436.453 241.968 435.461 242.168 434.357 242.168C433.093 242.168 431.973 241.896 430.997 241.352C430.021 240.808 429.253 240.032 428.693 239.024C428.149 238 427.877 236.8 427.877 235.424C427.877 234.048 428.149 232.848 428.693 231.824C429.253 230.8 430.021 230.016 430.997 229.472C431.973 228.928 433.093 228.656 434.357 228.656C435.637 228.656 436.749 228.928 437.693 229.472C438.653 230.016 439.381 230.744 439.877 231.656C440.389 232.568 440.645 233.576 440.645 234.68ZM438.437 234.824C438.485 233.848 438.325 233.032 437.957 232.376C437.589 231.72 437.085 231.232 436.445 230.912C435.805 230.592 435.109 230.432 434.357 230.432C433.157 230.432 432.149 230.808 431.333 231.56C430.517 232.296 430.077 233.384 430.013 234.824H438.437ZM445.11 239.432V242H442.47V239.432H445.11ZM12.456 273.608C12.456 274.408 12.264 275.152 11.88 275.84C11.496 276.528 10.912 277.088 10.128 277.52C9.344 277.952 8.376 278.168 7.224 278.168C6.104 278.168 5.104 277.968 4.224 277.568C3.36 277.152 2.664 276.592 2.136 275.888C1.624 275.168 1.328 274.352 1.248 273.44H3.576C3.624 273.92 3.784 274.392 4.056 274.856C4.344 275.304 4.744 275.68 5.256 275.984C5.784 276.272 6.416 276.416 7.152 276.416C8.112 276.416 8.848 276.16 9.36 275.648C9.872 275.136 10.128 274.48 10.128 273.68C10.128 272.992 9.944 272.432 9.576 272C9.224 271.568 8.784 271.232 8.256 270.992C7.728 270.736 7.008 270.464 6.096 270.176C5.024 269.824 4.16 269.496 3.504 269.192C2.864 268.872 2.312 268.4 1.848 267.776C1.4 267.152 1.176 266.328 1.176 265.304C1.176 264.424 1.384 263.648 1.8 262.976C2.232 262.304 2.84 261.784 3.624 261.416C4.424 261.048 5.36 260.864 6.432 260.864C8.096 260.864 9.416 261.272 10.392 262.088C11.368 262.888 11.936 263.912 12.096 265.16H9.744C9.616 264.488 9.272 263.896 8.712 263.384C8.152 262.872 7.392 262.616 6.432 262.616C5.552 262.616 4.848 262.848 4.32 263.312C3.792 263.76 3.528 264.4 3.528 265.232C3.528 265.888 3.696 266.424 4.032 266.84C4.384 267.24 4.816 267.56 5.328 267.8C5.84 268.024 6.544 268.28 7.44 268.568C8.528 268.92 9.4 269.256 10.056 269.576C10.728 269.896 11.296 270.384 11.76 271.04C12.224 271.68 12.456 272.536 12.456 273.608ZM27.5126 270.68C27.5126 271.144 27.4806 271.544 27.4166 271.88H16.8806C16.9286 273.384 17.3526 274.512 18.1526 275.264C18.9686 276.016 19.9606 276.392 21.1286 276.392C22.1846 276.392 23.0646 276.128 23.7686 275.6C24.4886 275.056 24.9286 274.336 25.0886 273.44H27.4166C27.2566 274.352 26.8966 275.168 26.3366 275.888C25.7926 276.608 25.0806 277.168 24.2006 277.568C23.3206 277.968 22.3286 278.168 21.2246 278.168C19.9606 278.168 18.8406 277.896 17.8646 277.352C16.8886 276.808 16.1206 276.032 15.5606 275.024C15.0166 274 14.7446 272.8 14.7446 271.424C14.7446 270.048 15.0166 268.848 15.5606 267.824C16.1206 266.8 16.8886 266.016 17.8646 265.472C18.8406 264.928 19.9606 264.656 21.2246 264.656C22.5046 264.656 23.6166 264.928 24.5606 265.472C25.5206 266.016 26.2486 266.744 26.7446 267.656C27.2566 268.568 27.5126 269.576 27.5126 270.68ZM25.3046 270.824C25.3526 269.848 25.1926 269.032 24.8246 268.376C24.4566 267.72 23.9526 267.232 23.3126 266.912C22.6726 266.592 21.9766 266.432 21.2246 266.432C20.0246 266.432 19.0166 266.808 18.2006 267.56C17.3846 268.296 16.9446 269.384 16.8806 270.824H25.3046ZM37.3052 264.608C38.8412 264.608 40.0812 265.104 41.0252 266.096C41.9692 267.072 42.4412 268.488 42.4412 270.344V278H40.2572V270.536C40.2572 269.224 39.9212 268.216 39.2492 267.512C38.5772 266.808 37.6652 266.456 36.5132 266.456C35.3132 266.456 34.3532 266.848 33.6332 267.632C32.9132 268.4 32.5532 269.528 32.5532 271.016V278H30.3692V264.824H32.5532V267.944C32.8892 266.872 33.4812 266.048 34.3292 265.472C35.1932 264.896 36.1852 264.608 37.3052 264.608ZM51.1911 264.656C52.4711 264.656 53.5511 264.976 54.4311 265.616C55.3271 266.256 55.9511 267.112 56.3031 268.184V260.24H58.4871V278H56.3031V274.64C55.9511 275.712 55.3271 276.568 54.4311 277.208C53.5511 277.848 52.4711 278.168 51.1911 278.168C50.0231 278.168 48.9831 277.896 48.0711 277.352C47.1591 276.808 46.4391 276.032 45.9111 275.024C45.3991 274 45.1431 272.8 45.1431 271.424C45.1431 270.048 45.3991 268.848 45.9111 267.824C46.4391 266.8 47.1591 266.016 48.0711 265.472C48.9831 264.928 50.0231 264.656 51.1911 264.656ZM51.8151 266.6C50.4711 266.6 49.3911 267.032 48.5751 267.896C47.7751 268.744 47.3751 269.92 47.3751 271.424C47.3751 272.928 47.7751 274.112 48.5751 274.976C49.3911 275.824 50.4711 276.248 51.8151 276.248C52.6791 276.248 53.4471 276.048 54.1191 275.648C54.8071 275.248 55.3431 274.688 55.7271 273.968C56.1111 273.232 56.3031 272.384 56.3031 271.424C56.3031 270.464 56.1111 269.616 55.7271 268.88C55.3431 268.144 54.8071 267.584 54.1191 267.2C53.4471 266.8 52.6791 266.6 51.8151 266.6ZM84.0926 264.608C85.6286 264.608 86.8606 265.104 87.7886 266.096C88.7326 267.072 89.2046 268.488 89.2046 270.344V278H87.0206V270.536C87.0206 269.24 86.7006 268.248 86.0606 267.56C85.4366 266.872 84.5726 266.528 83.4686 266.528C82.3166 266.528 81.3886 266.912 80.6846 267.68C79.9966 268.432 79.6526 269.544 79.6526 271.016V278H77.4686V270.536C77.4686 269.24 77.1486 268.248 76.5086 267.56C75.8686 266.872 75.0046 266.528 73.9166 266.528C72.7486 266.528 71.8126 266.912 71.1086 267.68C70.4206 268.432 70.0766 269.544 70.0766 271.016V278H67.8926V264.824H70.0766V267.824C70.3966 266.784 70.9646 265.992 71.7806 265.448C72.6126 264.888 73.5646 264.608 74.6366 264.608C75.7566 264.608 76.7246 264.896 77.5406 265.472C78.3726 266.032 78.9646 266.864 79.3166 267.968C79.6846 266.896 80.3006 266.072 81.1646 265.496C82.0286 264.904 83.0046 264.608 84.0926 264.608ZM98.5718 264.656C99.8358 264.656 100.964 264.928 101.956 265.472C102.964 266.016 103.748 266.8 104.308 267.824C104.884 268.848 105.172 270.048 105.172 271.424C105.172 272.8 104.884 274 104.308 275.024C103.748 276.032 102.964 276.808 101.956 277.352C100.964 277.896 99.8358 278.168 98.5718 278.168C97.3078 278.168 96.1718 277.896 95.1638 277.352C94.1718 276.808 93.3878 276.032 92.8118 275.024C92.2358 274 91.9478 272.8 91.9478 271.424C91.9478 270.048 92.2358 268.848 92.8118 267.824C93.3878 266.8 94.1718 266.016 95.1638 265.472C96.1718 264.928 97.3078 264.656 98.5718 264.656ZM98.5718 266.576C97.7878 266.576 97.0598 266.752 96.3878 267.104C95.7318 267.456 95.1958 268 94.7798 268.736C94.3798 269.456 94.1798 270.352 94.1798 271.424C94.1798 272.48 94.3798 273.376 94.7798 274.112C95.1958 274.832 95.7318 275.368 96.3878 275.72C97.0598 276.072 97.7878 276.248 98.5718 276.248C99.3558 276.248 100.076 276.072 100.732 275.72C101.404 275.368 101.94 274.832 102.34 274.112C102.756 273.376 102.964 272.48 102.964 271.424C102.964 270.352 102.756 269.456 102.34 268.736C101.94 268 101.404 267.456 100.732 267.104C100.076 266.752 99.3558 266.576 98.5718 266.576ZM114.954 264.608C116.49 264.608 117.73 265.104 118.674 266.096C119.618 267.072 120.09 268.488 120.09 270.344V278H117.906V270.536C117.906 269.224 117.57 268.216 116.898 267.512C116.226 266.808 115.314 266.456 114.162 266.456C112.962 266.456 112.002 266.848 111.282 267.632C110.562 268.4 110.202 269.528 110.202 271.016V278H108.018V264.824H110.202V267.944C110.538 266.872 111.13 266.048 111.978 265.472C112.842 264.896 113.834 264.608 114.954 264.608ZM135.56 270.68C135.56 271.144 135.528 271.544 135.464 271.88H124.928C124.976 273.384 125.4 274.512 126.2 275.264C127.016 276.016 128.008 276.392 129.176 276.392C130.232 276.392 131.112 276.128 131.816 275.6C132.536 275.056 132.976 274.336 133.136 273.44H135.464C135.304 274.352 134.944 275.168 134.384 275.888C133.84 276.608 133.128 277.168 132.248 277.568C131.368 277.968 130.376 278.168 129.272 278.168C128.008 278.168 126.888 277.896 125.912 277.352C124.936 276.808 124.168 276.032 123.608 275.024C123.064 274 122.792 272.8 122.792 271.424C122.792 270.048 123.064 268.848 123.608 267.824C124.168 266.8 124.936 266.016 125.912 265.472C126.888 264.928 128.008 264.656 129.272 264.656C130.552 264.656 131.664 264.928 132.608 265.472C133.568 266.016 134.296 266.744 134.792 267.656C135.304 268.568 135.56 269.576 135.56 270.68ZM133.352 270.824C133.4 269.848 133.24 269.032 132.872 268.376C132.504 267.72 132 267.232 131.36 266.912C130.72 266.592 130.024 266.432 129.272 266.432C128.072 266.432 127.064 266.808 126.248 267.56C125.432 268.296 124.992 269.384 124.928 270.824H133.352ZM139.328 264.824L143.6 275.192L147.56 264.824H149.984L142.16 284.24H139.688L142.424 277.784L136.88 264.824H139.328ZM153.258 276.392C153.482 277.096 153.594 277.752 153.594 278.36C153.594 279.192 153.386 279.856 152.97 280.352C152.554 280.864 151.93 281.12 151.098 281.12V280.184C151.498 280.184 151.786 280.072 151.962 279.848C152.154 279.64 152.25 279.304 152.25 278.84V278.624H151.026V276.392H153.258ZM178.311 264.608C179.847 264.608 181.079 265.104 182.007 266.096C182.951 267.072 183.423 268.488 183.423 270.344V278H181.239V270.536C181.239 269.24 180.919 268.248 180.279 267.56C179.655 266.872 178.791 266.528 177.687 266.528C176.535 266.528 175.607 266.912 174.903 267.68C174.215 268.432 173.871 269.544 173.871 271.016V278H171.687V270.536C171.687 269.24 171.367 268.248 170.727 267.56C170.087 266.872 169.223 266.528 168.135 266.528C166.967 266.528 166.031 266.912 165.327 267.68C164.639 268.432 164.295 269.544 164.295 271.016V278H162.111V264.824H164.295V267.824C164.615 266.784 165.183 265.992 165.999 265.448C166.831 264.888 167.783 264.608 168.855 264.608C169.975 264.608 170.943 264.896 171.759 265.472C172.591 266.032 173.183 266.864 173.535 267.968C173.903 266.896 174.519 266.072 175.383 265.496C176.247 264.904 177.223 264.608 178.311 264.608ZM192.215 264.656C193.495 264.656 194.575 264.976 195.455 265.616C196.351 266.256 196.975 267.112 197.327 268.184V264.824H199.511V278H197.327V274.64C196.975 275.712 196.351 276.568 195.455 277.208C194.575 277.848 193.495 278.168 192.215 278.168C191.047 278.168 190.007 277.896 189.095 277.352C188.183 276.808 187.463 276.032 186.935 275.024C186.423 274 186.167 272.8 186.167 271.424C186.167 270.048 186.423 268.848 186.935 267.824C187.463 266.8 188.183 266.016 189.095 265.472C190.007 264.928 191.047 264.656 192.215 264.656ZM192.839 266.6C191.495 266.6 190.415 267.032 189.599 267.896C188.799 268.744 188.399 269.92 188.399 271.424C188.399 272.928 188.799 274.112 189.599 274.976C190.415 275.824 191.495 276.248 192.839 276.248C193.703 276.248 194.471 276.048 195.143 275.648C195.831 275.248 196.367 274.688 196.751 273.968C197.135 273.232 197.327 272.384 197.327 271.424C197.327 270.464 197.135 269.616 196.751 268.88C196.367 268.144 195.831 267.584 195.143 267.2C194.471 266.8 193.703 266.6 192.839 266.6ZM210.21 278L205.17 272.072V278H202.986V260.24H205.17V270.56L210.138 264.824H212.802L206.898 271.376L212.946 278H210.21ZM226.989 270.68C226.989 271.144 226.957 271.544 226.893 271.88H216.357C216.405 273.384 216.829 274.512 217.629 275.264C218.445 276.016 219.437 276.392 220.605 276.392C221.661 276.392 222.541 276.128 223.245 275.6C223.965 275.056 224.405 274.336 224.565 273.44H226.893C226.733 274.352 226.373 275.168 225.813 275.888C225.269 276.608 224.557 277.168 223.677 277.568C222.797 277.968 221.805 278.168 220.701 278.168C219.437 278.168 218.317 277.896 217.341 277.352C216.365 276.808 215.597 276.032 215.037 275.024C214.493 274 214.221 272.8 214.221 271.424C214.221 270.048 214.493 268.848 215.037 267.824C215.597 266.8 216.365 266.016 217.341 265.472C218.317 264.928 219.437 264.656 220.701 264.656C221.981 264.656 223.093 264.928 224.037 265.472C224.997 266.016 225.725 266.744 226.221 267.656C226.733 268.568 226.989 269.576 226.989 270.68ZM224.781 270.824C224.829 269.848 224.669 269.032 224.301 268.376C223.933 267.72 223.429 267.232 222.789 266.912C222.149 266.592 221.453 266.432 220.701 266.432C219.501 266.432 218.493 266.808 217.677 267.56C216.861 268.296 216.421 269.384 216.357 270.824H224.781ZM243.047 264.656C244.215 264.656 245.255 264.928 246.167 265.472C247.079 266.016 247.791 266.8 248.303 267.824C248.831 268.848 249.095 270.048 249.095 271.424C249.095 272.8 248.831 274 248.303 275.024C247.791 276.032 247.079 276.808 246.167 277.352C245.255 277.896 244.215 278.168 243.047 278.168C241.767 278.168 240.679 277.848 239.783 277.208C238.903 276.552 238.295 275.696 237.959 274.64V284.24H235.775V264.824H237.959V268.184C238.295 267.128 238.903 266.28 239.783 265.64C240.679 264.984 241.767 264.656 243.047 264.656ZM242.423 266.6C241.575 266.6 240.807 266.8 240.119 267.2C239.431 267.584 238.895 268.144 238.511 268.88C238.127 269.616 237.935 270.464 237.935 271.424C237.935 272.384 238.127 273.232 238.511 273.968C238.895 274.688 239.431 275.248 240.119 275.648C240.807 276.048 241.575 276.248 242.423 276.248C243.783 276.248 244.863 275.824 245.663 274.976C246.479 274.112 246.887 272.928 246.887 271.424C246.887 269.92 246.479 268.744 245.663 267.896C244.863 267.032 243.783 266.6 242.423 266.6ZM257.347 264.656C258.627 264.656 259.707 264.976 260.587 265.616C261.483 266.256 262.107 267.112 262.459 268.184V264.824H264.643V278H262.459V274.64C262.107 275.712 261.483 276.568 260.587 277.208C259.707 277.848 258.627 278.168 257.347 278.168C256.179 278.168 255.139 277.896 254.227 277.352C253.315 276.808 252.595 276.032 252.067 275.024C251.555 274 251.299 272.8 251.299 271.424C251.299 270.048 251.555 268.848 252.067 267.824C252.595 266.8 253.315 266.016 254.227 265.472C255.139 264.928 256.179 264.656 257.347 264.656ZM257.971 266.6C256.627 266.6 255.547 267.032 254.731 267.896C253.931 268.744 253.531 269.92 253.531 271.424C253.531 272.928 253.931 274.112 254.731 274.976C255.547 275.824 256.627 276.248 257.971 276.248C258.835 276.248 259.603 276.048 260.275 275.648C260.963 275.248 261.499 274.688 261.883 273.968C262.267 273.232 262.459 272.384 262.459 271.424C262.459 270.464 262.267 269.616 261.883 268.88C261.499 268.144 260.963 267.584 260.275 267.2C259.603 266.8 258.835 266.6 257.971 266.6ZM269.031 264.824L273.303 275.192L277.263 264.824H279.687L271.863 284.24H269.391L272.127 277.784L266.583 264.824H269.031ZM297.89 264.608C299.426 264.608 300.658 265.104 301.586 266.096C302.53 267.072 303.002 268.488 303.002 270.344V278H300.818V270.536C300.818 269.24 300.498 268.248 299.858 267.56C299.234 266.872 298.37 266.528 297.266 266.528C296.114 266.528 295.186 266.912 294.482 267.68C293.794 268.432 293.45 269.544 293.45 271.016V278H291.266V270.536C291.266 269.24 290.946 268.248 290.306 267.56C289.666 266.872 288.802 266.528 287.714 266.528C286.546 266.528 285.61 266.912 284.906 267.68C284.218 268.432 283.874 269.544 283.874 271.016V278H281.69V264.824H283.874V267.824C284.194 266.784 284.762 265.992 285.578 265.448C286.41 264.888 287.362 264.608 288.434 264.608C289.554 264.608 290.522 264.896 291.338 265.472C292.17 266.032 292.762 266.864 293.114 267.968C293.482 266.896 294.098 266.072 294.962 265.496C295.826 264.904 296.802 264.608 297.89 264.608ZM318.513 270.68C318.513 271.144 318.481 271.544 318.417 271.88H307.881C307.929 273.384 308.353 274.512 309.153 275.264C309.969 276.016 310.961 276.392 312.129 276.392C313.185 276.392 314.065 276.128 314.769 275.6C315.489 275.056 315.929 274.336 316.089 273.44H318.417C318.257 274.352 317.897 275.168 317.337 275.888C316.793 276.608 316.081 277.168 315.201 277.568C314.321 277.968 313.329 278.168 312.225 278.168C310.961 278.168 309.841 277.896 308.865 277.352C307.889 276.808 307.121 276.032 306.561 275.024C306.017 274 305.745 272.8 305.745 271.424C305.745 270.048 306.017 268.848 306.561 267.824C307.121 266.8 307.889 266.016 308.865 265.472C309.841 264.928 310.961 264.656 312.225 264.656C313.505 264.656 314.617 264.928 315.561 265.472C316.521 266.016 317.249 266.744 317.745 267.656C318.257 268.568 318.513 269.576 318.513 270.68ZM316.305 270.824C316.353 269.848 316.193 269.032 315.825 268.376C315.457 267.72 314.953 267.232 314.313 266.912C313.673 266.592 312.977 266.432 312.225 266.432C311.025 266.432 310.017 266.808 309.201 267.56C308.385 268.296 307.945 269.384 307.881 270.824H316.305ZM328.305 264.608C329.841 264.608 331.081 265.104 332.025 266.096C332.969 267.072 333.441 268.488 333.441 270.344V278H331.257V270.536C331.257 269.224 330.921 268.216 330.249 267.512C329.577 266.808 328.665 266.456 327.513 266.456C326.313 266.456 325.353 266.848 324.633 267.632C323.913 268.4 323.553 269.528 323.553 271.016V278H321.369V264.824H323.553V267.944C323.889 266.872 324.481 266.048 325.329 265.472C326.193 264.896 327.185 264.608 328.305 264.608ZM343.079 276.08V278H341.447C340.103 278 339.095 277.68 338.423 277.04C337.767 276.4 337.439 275.328 337.439 273.824V266.72H335.471V264.824H337.439V261.536H339.647V264.824H343.055V266.72H339.647V273.872C339.647 274.72 339.799 275.304 340.103 275.624C340.423 275.928 340.967 276.08 341.735 276.08H343.079ZM347.016 276.392C347.24 277.096 347.352 277.752 347.352 278.36C347.352 279.192 347.144 279.856 346.728 280.352C346.312 280.864 345.688 281.12 344.856 281.12V280.184C345.256 280.184 345.544 280.072 345.72 279.848C345.912 279.64 346.008 279.304 346.008 278.84V278.624H344.784V276.392H347.016ZM363.141 264.656C364.309 264.656 365.349 264.928 366.261 265.472C367.173 266.016 367.885 266.8 368.397 267.824C368.925 268.848 369.189 270.048 369.189 271.424C369.189 272.8 368.925 274 368.397 275.024C367.885 276.032 367.173 276.808 366.261 277.352C365.349 277.896 364.309 278.168 363.141 278.168C361.861 278.168 360.773 277.848 359.877 277.208C358.997 276.552 358.389 275.696 358.053 274.64V284.24H355.869V264.824H358.053V268.184C358.389 267.128 358.997 266.28 359.877 265.64C360.773 264.984 361.861 264.656 363.141 264.656ZM362.517 266.6C361.669 266.6 360.901 266.8 360.213 267.2C359.525 267.584 358.989 268.144 358.605 268.88C358.221 269.616 358.029 270.464 358.029 271.424C358.029 272.384 358.221 273.232 358.605 273.968C358.989 274.688 359.525 275.248 360.213 275.648C360.901 276.048 361.669 276.248 362.517 276.248C363.877 276.248 364.957 275.824 365.757 274.976C366.573 274.112 366.981 272.928 366.981 271.424C366.981 269.92 366.573 268.744 365.757 267.896C364.957 267.032 363.877 266.6 362.517 266.6ZM377.441 264.656C378.721 264.656 379.801 264.976 380.681 265.616C381.577 266.256 382.201 267.112 382.553 268.184V264.824H384.737V278H382.553V274.64C382.201 275.712 381.577 276.568 380.681 277.208C379.801 277.848 378.721 278.168 377.441 278.168C376.273 278.168 375.233 277.896 374.321 277.352C373.409 276.808 372.689 276.032 372.161 275.024C371.649 274 371.393 272.8 371.393 271.424C371.393 270.048 371.649 268.848 372.161 267.824C372.689 266.8 373.409 266.016 374.321 265.472C375.233 264.928 376.273 264.656 377.441 264.656ZM378.065 266.6C376.721 266.6 375.641 267.032 374.825 267.896C374.025 268.744 373.625 269.92 373.625 271.424C373.625 272.928 374.025 274.112 374.825 274.976C375.641 275.824 376.721 276.248 378.065 276.248C378.929 276.248 379.697 276.048 380.369 275.648C381.057 275.248 381.593 274.688 381.977 273.968C382.361 273.232 382.553 272.384 382.553 271.424C382.553 270.464 382.361 269.616 381.977 268.88C381.593 268.144 381.057 267.584 380.369 267.2C379.697 266.8 378.929 266.6 378.065 266.6ZM389.125 264.824L393.397 275.192L397.357 264.824H399.781L391.957 284.24H389.485L392.221 277.784L386.677 264.824H389.125ZM414.985 264.656C416.153 264.656 417.193 264.928 418.105 265.472C419.017 266.016 419.729 266.8 420.241 267.824C420.769 268.848 421.033 270.048 421.033 271.424C421.033 272.8 420.769 274 420.241 275.024C419.729 276.032 419.017 276.808 418.105 277.352C417.193 277.896 416.153 278.168 414.985 278.168C413.705 278.168 412.617 277.848 411.721 277.208C410.841 276.552 410.233 275.696 409.897 274.64V278H407.713V260.24H409.897V268.184C410.233 267.128 410.841 266.28 411.721 265.64C412.617 264.984 413.705 264.656 414.985 264.656ZM414.361 266.6C413.513 266.6 412.745 266.8 412.057 267.2C411.369 267.584 410.833 268.144 410.449 268.88C410.065 269.616 409.873 270.464 409.873 271.424C409.873 272.384 410.065 273.232 410.449 273.968C410.833 274.688 411.369 275.248 412.057 275.648C412.745 276.048 413.513 276.248 414.361 276.248C415.721 276.248 416.801 275.824 417.601 274.976C418.417 274.112 418.825 272.928 418.825 271.424C418.825 269.92 418.417 268.744 417.601 267.896C416.801 267.032 415.721 266.6 414.361 266.6ZM423.501 260.96C423.501 260.56 423.637 260.24 423.909 260C424.181 259.744 424.541 259.616 424.989 259.616C425.437 259.616 425.797 259.744 426.069 260C426.341 260.24 426.477 260.56 426.477 260.96C426.477 261.36 426.341 261.688 426.069 261.944C425.797 262.184 425.437 262.304 424.989 262.304C424.541 262.304 424.181 262.184 423.909 261.944C423.637 261.688 423.501 261.36 423.501 260.96ZM426.069 264.824V278H423.885V264.824H426.069ZM431.764 260.24V278H429.58V260.24H431.764ZM437.459 260.24V278H435.275V260.24H437.459ZM445.099 264.656C446.587 264.656 447.779 265.048 448.675 265.832C449.587 266.6 450.139 267.64 450.331 268.952H448.243C448.147 268.168 447.819 267.528 447.259 267.032C446.715 266.52 445.979 266.264 445.051 266.264C444.267 266.264 443.651 266.456 443.203 266.84C442.771 267.208 442.555 267.712 442.555 268.352C442.555 268.832 442.699 269.224 442.987 269.528C443.291 269.816 443.659 270.04 444.091 270.2C444.539 270.344 445.147 270.504 445.915 270.68C446.891 270.904 447.675 271.136 448.267 271.376C448.875 271.6 449.387 271.968 449.803 272.48C450.235 272.992 450.451 273.68 450.451 274.544C450.451 275.616 450.043 276.488 449.227 277.16C448.427 277.832 447.355 278.168 446.011 278.168C444.443 278.168 443.163 277.792 442.171 277.04C441.179 276.288 440.595 275.24 440.419 273.896H442.531C442.611 274.696 442.955 275.344 443.563 275.84C444.187 276.336 445.003 276.584 446.011 276.584C446.763 276.584 447.347 276.392 447.763 276.008C448.195 275.624 448.411 275.12 448.411 274.496C448.411 273.984 448.259 273.576 447.955 273.272C447.651 272.968 447.275 272.736 446.827 272.576C446.379 272.416 445.763 272.248 444.979 272.072C444.003 271.848 443.219 271.624 442.627 271.4C442.051 271.176 441.555 270.824 441.139 270.344C440.739 269.848 440.539 269.184 440.539 268.352C440.539 267.248 440.947 266.36 441.763 265.688C442.579 265 443.691 264.656 445.099 264.656ZM465.131 261.704C463.963 261.688 463.147 261.888 462.683 262.304C462.235 262.72 462.011 263.44 462.011 264.464V264.824H465.131V266.744H462.011V278H459.827V266.744H457.931V264.824H459.827V264.296C459.827 261.144 461.595 259.64 465.131 259.784V261.704ZM472.902 264.656C474.182 264.656 475.262 264.976 476.142 265.616C477.038 266.256 477.662 267.112 478.014 268.184V264.824H480.198V278H478.014V274.64C477.662 275.712 477.038 276.568 476.142 277.208C475.262 277.848 474.182 278.168 472.902 278.168C471.734 278.168 470.694 277.896 469.782 277.352C468.87 276.808 468.15 276.032 467.622 275.024C467.11 274 466.854 272.8 466.854 271.424C466.854 270.048 467.11 268.848 467.622 267.824C468.15 266.8 468.87 266.016 469.782 265.472C470.694 264.928 471.734 264.656 472.902 264.656ZM473.526 266.6C472.182 266.6 471.102 267.032 470.286 267.896C469.486 268.744 469.086 269.92 469.086 271.424C469.086 272.928 469.486 274.112 470.286 274.976C471.102 275.824 472.182 276.248 473.526 276.248C474.39 276.248 475.158 276.048 475.83 275.648C476.518 275.248 477.054 274.688 477.438 273.968C477.822 273.232 478.014 272.384 478.014 271.424C478.014 270.464 477.822 269.616 477.438 268.88C477.054 268.144 476.518 267.584 475.83 267.2C475.158 266.8 474.39 266.6 473.526 266.6ZM487.802 264.656C489.29 264.656 490.482 265.048 491.378 265.832C492.29 266.6 492.842 267.64 493.034 268.952H490.946C490.85 268.168 490.522 267.528 489.962 267.032C489.418 266.52 488.682 266.264 487.754 266.264C486.97 266.264 486.354 266.456 485.906 266.84C485.474 267.208 485.258 267.712 485.258 268.352C485.258 268.832 485.402 269.224 485.69 269.528C485.994 269.816 486.362 270.04 486.794 270.2C487.242 270.344 487.85 270.504 488.618 270.68C489.594 270.904 490.378 271.136 490.97 271.376C491.578 271.6 492.09 271.968 492.506 272.48C492.938 272.992 493.154 273.68 493.154 274.544C493.154 275.616 492.746 276.488 491.93 277.16C491.13 277.832 490.058 278.168 488.714 278.168C487.146 278.168 485.866 277.792 484.874 277.04C483.882 276.288 483.298 275.24 483.122 273.896H485.234C485.314 274.696 485.658 275.344 486.266 275.84C486.89 276.336 487.706 276.584 488.714 276.584C489.466 276.584 490.05 276.392 490.466 276.008C490.898 275.624 491.114 275.12 491.114 274.496C491.114 273.984 490.962 273.576 490.658 273.272C490.354 272.968 489.978 272.736 489.53 272.576C489.082 272.416 488.466 272.248 487.682 272.072C486.706 271.848 485.922 271.624 485.33 271.4C484.754 271.176 484.258 270.824 483.842 270.344C483.442 269.848 483.242 269.184 483.242 268.352C483.242 267.248 483.65 266.36 484.466 265.688C485.282 265 486.394 264.656 487.802 264.656ZM502.36 276.08V278H500.728C499.384 278 498.376 277.68 497.704 277.04C497.048 276.4 496.72 275.328 496.72 273.824V266.72H494.752V264.824H496.72V261.536H498.928V264.824H502.336V266.72H498.928V273.872C498.928 274.72 499.08 275.304 499.384 275.624C499.704 275.928 500.248 276.08 501.016 276.08H502.36ZM516.355 264.656C517.635 264.656 518.715 264.976 519.595 265.616C520.491 266.256 521.115 267.112 521.467 268.184V264.824H523.651V278H521.467V274.64C521.115 275.712 520.491 276.568 519.595 277.208C518.715 277.848 517.635 278.168 516.355 278.168C515.187 278.168 514.147 277.896 513.235 277.352C512.323 276.808 511.603 276.032 511.075 275.024C510.563 274 510.307 272.8 510.307 271.424C510.307 270.048 510.563 268.848 511.075 267.824C511.603 266.8 512.323 266.016 513.235 265.472C514.147 264.928 515.187 264.656 516.355 264.656ZM516.979 266.6C515.635 266.6 514.555 267.032 513.739 267.896C512.939 268.744 512.539 269.92 512.539 271.424C512.539 272.928 512.939 274.112 513.739 274.976C514.555 275.824 515.635 276.248 516.979 276.248C517.843 276.248 518.611 276.048 519.283 275.648C519.971 275.248 520.507 274.688 520.891 273.968C521.275 273.232 521.467 272.384 521.467 271.424C521.467 270.464 521.275 269.616 520.891 268.88C520.507 268.144 519.971 267.584 519.283 267.2C518.611 266.8 517.843 266.6 516.979 266.6ZM534.063 264.608C535.599 264.608 536.839 265.104 537.783 266.096C538.727 267.072 539.199 268.488 539.199 270.344V278H537.015V270.536C537.015 269.224 536.679 268.216 536.007 267.512C535.335 266.808 534.423 266.456 533.271 266.456C532.071 266.456 531.111 266.848 530.391 267.632C529.671 268.4 529.311 269.528 529.311 271.016V278H527.127V264.824H529.311V267.944C529.647 266.872 530.239 266.048 531.087 265.472C531.951 264.896 532.943 264.608 534.063 264.608ZM547.949 264.656C549.229 264.656 550.309 264.976 551.189 265.616C552.085 266.256 552.709 267.112 553.061 268.184V260.24H555.245V278H553.061V274.64C552.709 275.712 552.085 276.568 551.189 277.208C550.309 277.848 549.229 278.168 547.949 278.168C546.781 278.168 545.741 277.896 544.829 277.352C543.917 276.808 543.197 276.032 542.669 275.024C542.157 274 541.901 272.8 541.901 271.424C541.901 270.048 542.157 268.848 542.669 267.824C543.197 266.8 543.917 266.016 544.829 265.472C545.741 264.928 546.781 264.656 547.949 264.656ZM548.573 266.6C547.229 266.6 546.149 267.032 545.333 267.896C544.533 268.744 544.133 269.92 544.133 271.424C544.133 272.928 544.533 274.112 545.333 274.976C546.149 275.824 547.229 276.248 548.573 276.248C549.437 276.248 550.205 276.048 550.877 275.648C551.565 275.248 552.101 274.688 552.485 273.968C552.869 273.232 553.061 272.384 553.061 271.424C553.061 270.464 552.869 269.616 552.485 268.88C552.101 268.144 551.565 267.584 550.877 267.2C550.205 266.8 549.437 266.6 548.573 266.6ZM13.872 306.68C13.872 307.144 13.84 307.544 13.776 307.88H3.24C3.288 309.384 3.712 310.512 4.512 311.264C5.328 312.016 6.32 312.392 7.488 312.392C8.544 312.392 9.424 312.128 10.128 311.6C10.848 311.056 11.288 310.336 11.448 309.44H13.776C13.616 310.352 13.256 311.168 12.696 311.888C12.152 312.608 11.44 313.168 10.56 313.568C9.68 313.968 8.688 314.168 7.584 314.168C6.32 314.168 5.2 313.896 4.224 313.352C3.248 312.808 2.48 312.032 1.92 311.024C1.376 310 1.104 308.8 1.104 307.424C1.104 306.048 1.376 304.848 1.92 303.824C2.48 302.8 3.248 302.016 4.224 301.472C5.2 300.928 6.32 300.656 7.584 300.656C8.864 300.656 9.976 300.928 10.92 301.472C11.88 302.016 12.608 302.744 13.104 303.656C13.616 304.568 13.872 305.576 13.872 306.68ZM11.664 306.824C11.712 305.848 11.552 305.032 11.184 304.376C10.816 303.72 10.312 303.232 9.672 302.912C9.032 302.592 8.336 302.432 7.584 302.432C6.384 302.432 5.376 302.808 4.56 303.56C3.744 304.296 3.304 305.384 3.24 306.824H11.664ZM22.1286 300.656C23.4086 300.656 24.4886 300.976 25.3686 301.616C26.2646 302.256 26.8886 303.112 27.2406 304.184V300.824H29.4246V314H27.2406V310.64C26.8886 311.712 26.2646 312.568 25.3686 313.208C24.4886 313.848 23.4086 314.168 22.1286 314.168C20.9606 314.168 19.9206 313.896 19.0086 313.352C18.0966 312.808 17.3766 312.032 16.8486 311.024C16.3366 310 16.0806 308.8 16.0806 307.424C16.0806 306.048 16.3366 304.848 16.8486 303.824C17.3766 302.8 18.0966 302.016 19.0086 301.472C19.9206 300.928 20.9606 300.656 22.1286 300.656ZM22.7526 302.6C21.4086 302.6 20.3286 303.032 19.5126 303.896C18.7126 304.744 18.3126 305.92 18.3126 307.424C18.3126 308.928 18.7126 310.112 19.5126 310.976C20.3286 311.824 21.4086 312.248 22.7526 312.248C23.6166 312.248 24.3846 312.048 25.0566 311.648C25.7446 311.248 26.2806 310.688 26.6646 309.968C27.0486 309.232 27.2406 308.384 27.2406 307.424C27.2406 306.464 27.0486 305.616 26.6646 304.88C26.2806 304.144 25.7446 303.584 25.0566 303.2C24.3846 302.8 23.6166 302.6 22.7526 302.6ZM37.0284 300.656C38.5164 300.656 39.7084 301.048 40.6044 301.832C41.5164 302.6 42.0684 303.64 42.2604 304.952H40.1724C40.0764 304.168 39.7484 303.528 39.1884 303.032C38.6444 302.52 37.9084 302.264 36.9804 302.264C36.1964 302.264 35.5804 302.456 35.1324 302.84C34.7004 303.208 34.4844 303.712 34.4844 304.352C34.4844 304.832 34.6284 305.224 34.9164 305.528C35.2204 305.816 35.5884 306.04 36.0204 306.2C36.4684 306.344 37.0764 306.504 37.8444 306.68C38.8204 306.904 39.6044 307.136 40.1964 307.376C40.8044 307.6 41.3164 307.968 41.7324 308.48C42.1644 308.992 42.3804 309.68 42.3804 310.544C42.3804 311.616 41.9724 312.488 41.1564 313.16C40.3564 313.832 39.2844 314.168 37.9404 314.168C36.3724 314.168 35.0924 313.792 34.1004 313.04C33.1084 312.288 32.5244 311.24 32.3484 309.896H34.4604C34.5404 310.696 34.8844 311.344 35.4924 311.84C36.1164 312.336 36.9324 312.584 37.9404 312.584C38.6924 312.584 39.2764 312.392 39.6924 312.008C40.1244 311.624 40.3404 311.12 40.3404 310.496C40.3404 309.984 40.1884 309.576 39.8844 309.272C39.5804 308.968 39.2044 308.736 38.7564 308.576C38.3084 308.416 37.6924 308.248 36.9084 308.072C35.9324 307.848 35.1484 307.624 34.5564 307.4C33.9804 307.176 33.4844 306.824 33.0684 306.344C32.6684 305.848 32.4684 305.184 32.4684 304.352C32.4684 303.248 32.8764 302.36 33.6924 301.688C34.5084 301 35.6204 300.656 37.0284 300.656ZM46.2109 300.824L50.4829 311.192L54.4429 300.824H56.8669L49.0429 320.24H46.5709L49.3069 313.784L43.7629 300.824H46.2109ZM61.9892 296.672L61.6772 309.032H59.8772L59.5652 296.672H61.9892ZM62.1332 311.432V314H59.4692V311.432H62.1332Z" fill="#314D50"/>
</svg>
