<svg width="24" height="24" viewBox="0 0 24 24" fill="none" xmlns="http://www.w3.org/2000/svg">
<path d="M20.449 20.4494H16.893V14.8804C16.893 13.5524 16.8693 11.8429 15.0435 11.8429C13.1913 11.8429 12.9079 13.2898 12.9079 14.7837V20.449H9.352V8.99689H12.7657V10.5619H12.8135C13.1552 9.97779 13.6488 9.49724 14.242 9.17146C14.8351 8.84569 15.5055 8.68689 16.1818 8.71198C19.786 8.71198 20.4505 11.0827 20.4505 14.1669L20.449 20.4494V20.4494ZM5.3395 7.43154C4.19978 7.43173 3.27569 6.50792 3.2755 5.3682C3.27532 4.22848 4.19903 3.30439 5.33875 3.3042C6.47847 3.30392 7.40257 4.22773 7.40275 5.36745C7.40285 5.91476 7.18553 6.4397 6.7986 6.82679C6.41167 7.21388 5.88682 7.43142 5.3395 7.43154M7.11757 20.4495H3.55778V8.99689H7.11747V20.4494L7.11757 20.4495ZM22.2218 0.00166663H1.77091C0.804347 -0.00920837 0.0116904 0.765073 -0.00012207 1.73164V22.2679C0.0113154 23.2349 0.803878 24.0099 1.77082 23.9998H22.2218C23.1908 24.0118 23.9865 23.2368 23.9999 22.2679V1.73004C23.9861 0.761604 23.1903 -0.0125834 22.2218 7.28813e-05" fill="#0000FF"/>
</svg>
