<svg width="80" height="80" viewBox="0 0 80 80" fill="none" xmlns="http://www.w3.org/2000/svg">
<rect width="80" height="80" fill="#0A535A"/>
<path d="M40 40C40.7333 40 41.3613 39.7387 41.884 39.216C42.4058 38.6942 42.6666 38.0667 42.6666 37.3334C42.6666 36.6 42.4058 35.972 41.884 35.4494C41.3613 34.9276 40.7333 34.6667 40 34.6667C39.2666 34.6667 38.6391 34.9276 38.1173 35.4494C37.5946 35.972 37.3333 36.6 37.3333 37.3334C37.3333 38.0667 37.5946 38.6942 38.1173 39.216C38.6391 39.7387 39.2666 40 40 40ZM40 49.8C42.7111 47.3111 44.7222 45.0498 46.0333 43.016C47.3444 40.9831 48 39.1778 48 37.6C48 35.1778 47.2275 33.1942 45.6826 31.6494C44.1386 30.1054 42.2444 29.3334 40 29.3334C37.7555 29.3334 35.8609 30.1054 34.316 31.6494C32.772 33.1942 32 35.1778 32 37.6C32 39.1778 32.6555 40.9831 33.9666 43.016C35.2778 45.0498 37.2889 47.3111 40 49.8ZM40 53.3334C36.4222 50.2889 33.7502 47.4609 31.984 44.8494C30.2169 42.2387 29.3333 39.8222 29.3333 37.6C29.3333 34.2667 30.4058 31.6111 32.5506 29.6334C34.6946 27.6556 37.1778 26.6667 40 26.6667C42.8222 26.6667 45.3053 27.6556 47.4493 29.6334C49.5942 31.6111 50.6666 34.2667 50.6666 37.6C50.6666 39.8222 49.7835 42.2387 48.0173 44.8494C46.2502 47.4609 43.5778 50.2889 40 53.3334Z" fill="#02EC87"/>
</svg>
