<svg width="80" height="80" viewBox="0 0 80 80" fill="none" xmlns="http://www.w3.org/2000/svg">
<rect width="80" height="80" fill="#0A535A"/>
<path d="M46.625 27.031C46.2915 27.0662 45.965 27.1505 45.656 27.281V27.25C45.641 27.254 45.609 27.277 45.594 27.281C43.16 28.137 38.5 30.281 34.281 34.5C30.031 38.75 27.981 43.496 27.062 45.844V45.875C26.8675 46.4634 26.8286 47.0922 26.9492 47.7001C27.0698 48.308 27.3457 48.8743 27.75 49.344L27.781 49.375V49.406L30.781 52.375L30.906 52.5C31.734 53.328 33.172 53.328 34 52.5L38.094 48.406C38.922 47.578 38.922 46.109 38.094 45.281L36.125 43.313C36.469 42.598 37.359 40.84 38.938 39.188C40.503 37.546 42.3 36.71 43 36.405L45.063 38.468L45.156 38.53C45.625 38.843 46.16 39.019 46.719 38.999C47.242 38.979 47.785 38.722 48.187 38.28L48.219 38.311L48.281 38.218L52.313 34.218C53.141 33.39 53.141 31.921 52.313 31.093L49.218 28C48.7611 27.5493 48.1871 27.2354 47.561 27.094C47.2539 27.024 46.9377 27.0028 46.624 27.031H46.625ZM46.781 29.031C47.161 29.004 47.539 29.164 47.781 29.406L50.906 32.5C51.078 32.672 51.078 32.61 50.906 32.781L46.72 36.97C46.724 36.966 46.72 36.997 46.626 37.001C46.548 37.005 46.431 36.938 46.313 36.876H46.251L43.906 34.5L43.438 34.031L42.844 34.25C42.844 34.25 39.77 35.398 37.469 37.813C35.207 40.18 33.969 43.093 33.969 43.093L33.719 43.719L34.188 44.219L36.688 46.719C36.859 46.891 36.859 46.829 36.688 47L32.594 51.094C32.422 51.266 32.484 51.266 32.313 51.094L29.25 48.062C29.242 48.055 29.258 48.039 29.25 48.032L29.219 48C28.871 47.566 28.766 47.105 28.937 46.562C28.941 46.551 28.934 46.543 28.937 46.532C29.824 44.273 31.777 39.848 35.719 35.906C39.676 31.949 44.164 29.914 46.344 29.156L46.375 29.125H46.406C46.527 29.07 46.656 29.039 46.781 29.031Z" fill="#02EC87"/>
</svg>
