<svg width="24" height="24" viewBox="0 0 24 24" fill="none" xmlns="http://www.w3.org/2000/svg">
<path d="M23.9989 2.92249C23.1003 3.41015 22.1471 3.73026 21.1711 3.87215C22.1877 3.12574 22.9683 1.94377 23.3358 0.535463C22.3694 1.23799 21.3121 1.73297 20.2095 1.999C19.3114 0.826908 18.0319 0.0943909 16.6158 0.0943909C13.8967 0.0943909 11.6922 2.79479 11.6922 6.1254C11.6922 6.59816 11.7358 7.05841 11.8197 7.49994C7.7279 7.24834 4.10013 4.84731 1.67178 1.19839C1.24807 2.08915 1.00528 3.12528 1.00528 4.23043C1.00528 6.32291 1.87454 8.16884 3.19553 9.25045C2.41369 9.22045 1.64904 8.96177 0.965439 8.496C0.965158 8.52126 0.965158 8.54652 0.965158 8.5719C0.965158 11.494 2.66224 13.9317 4.91446 14.4858C4.18946 14.7273 3.42898 14.7627 2.69111 14.5891C3.31758 16.9852 5.13588 18.7288 7.29023 18.7776C5.60524 20.3952 3.48229 21.3594 1.1757 21.3594C0.778239 21.3594 0.386402 21.3308 0.0012207 21.2751C2.18004 22.9864 4.76794 23.9848 7.5483 23.9848C16.6043 23.9848 21.5564 14.7947 21.5564 6.82484C21.5564 6.56325 21.5517 6.30316 21.5421 6.04455C22.506 5.19099 23.3379 4.13376 23.9989 2.92249" fill="#0000FF"/>
</svg>
