<svg width="16" height="9" viewBox="0 0 16 9" fill="none" xmlns="http://www.w3.org/2000/svg">
<path d="M8.00001 8.96667C7.82224 8.96667 7.65024 8.93334 7.48401 8.86667C7.3169 8.8 7.17779 8.71111 7.06668 8.6L0.933347 2.46667C0.688903 2.22223 0.566681 1.91111 0.566681 1.53334C0.566681 1.15556 0.688903 0.844448 0.933347 0.600004C1.17779 0.355559 1.4889 0.233337 1.86668 0.233337C2.24446 0.233337 2.55557 0.355559 2.80001 0.600004L8.00001 5.8L13.2 0.600004C13.4445 0.355559 13.7556 0.233337 14.1333 0.233337C14.5111 0.233337 14.8222 0.355559 15.0667 0.600004C15.3111 0.844448 15.4333 1.15556 15.4333 1.53334C15.4333 1.91111 15.3111 2.22223 15.0667 2.46667L8.93335 8.6C8.80001 8.73334 8.65557 8.82756 8.50001 8.88267C8.34446 8.93867 8.17779 8.96667 8.00001 8.96667Z" fill="#222222"/>
</svg>
