<svg width="24" height="28" viewBox="0 0 24 28" fill="none" xmlns="http://www.w3.org/2000/svg">
<path d="M17.976 27.128L14.456 22.904C13.6027 23.1173 12.664 23.224 11.64 23.224C9.528 23.224 7.608 22.7333 5.88 21.752C4.17333 20.7707 2.81867 19.3947 1.816 17.624C0.834667 15.8533 0.344 13.8587 0.344 11.64C0.344 9.42133 0.834667 7.43733 1.816 5.688C2.81867 3.91733 4.17333 2.54133 5.88 1.56C7.608 0.578666 9.528 0.0879993 11.64 0.0879993C13.752 0.0879993 15.6613 0.578666 17.368 1.56C19.096 2.54133 20.4507 3.91733 21.432 5.688C22.4347 7.43733 22.936 9.42133 22.936 11.64C22.936 13.7093 22.5093 15.5867 21.656 17.272C20.8027 18.936 19.6187 20.28 18.104 21.304L23.448 27.128H17.976ZM4.952 11.64C4.952 13.1333 5.22933 14.4453 5.784 15.576C6.36 16.6853 7.14933 17.5387 8.152 18.136C9.15467 18.7333 10.3173 19.032 11.64 19.032C12.9627 19.032 14.1253 18.7333 15.128 18.136C16.1307 17.5387 16.9093 16.6853 17.464 15.576C18.04 14.4453 18.328 13.1333 18.328 11.64C18.328 10.1467 18.04 8.84533 17.464 7.736C16.9093 6.60533 16.1307 5.74133 15.128 5.144C14.1253 4.54667 12.9627 4.248 11.64 4.248C10.3173 4.248 9.15467 4.54667 8.152 5.144C7.14933 5.74133 6.36 6.60533 5.784 7.736C5.22933 8.84533 4.952 10.1467 4.952 11.64Z" fill="#0A535A"/>
</svg>
