<svg width="40" height="40" viewBox="0 0 40 40" fill="none" xmlns="http://www.w3.org/2000/svg">
<rect width="40" height="40" fill="#02EC87" fill-opacity="0.2"/>
<path d="M23.75 8.75H16.25C15.0074 8.75 14 9.75736 14 11V29C14 30.2426 15.0074 31.25 16.25 31.25H23.75C24.9926 31.25 26 30.2426 26 29V11C26 9.75736 24.9926 8.75 23.75 8.75Z" stroke="#0A535A" stroke-width="2" stroke-linecap="round" stroke-linejoin="round"/>
<path d="M16.25 8.75H17.375C17.4745 8.75 17.5698 8.78951 17.6402 8.85983C17.7105 8.93016 17.75 9.02554 17.75 9.125C17.75 9.32391 17.829 9.51468 17.9697 9.65533C18.1103 9.79598 18.3011 9.875 18.5 9.875H21.5C21.6989 9.875 21.8897 9.79598 22.0303 9.65533C22.171 9.51468 22.25 9.32391 22.25 9.125C22.25 9.02554 22.2895 8.93016 22.3598 8.85983C22.4302 8.78951 22.5255 8.75 22.625 8.75H23.75" stroke="#0A535A" stroke-width="2" stroke-linecap="round" stroke-linejoin="round"/>
</svg>
