<svg width="28" height="33" viewBox="0 0 28 33" fill="none" xmlns="http://www.w3.org/2000/svg">
<path d="M9.15655 32.0099C8.10854 31.9531 7.12234 31.4961 6.40155 30.7332C5.5392 29.9036 4.76968 28.9826 4.10655 27.9865C3.07068 26.5032 2.25186 24.8796 1.67488 23.1649C1.02189 21.3201 0.678367 19.38 0.658215 17.4232C0.607485 15.5031 1.08298 13.6058 2.03322 11.9365C2.72917 10.7334 3.72186 9.72863 4.91655 9.01821C6.09802 8.31082 7.44624 7.93005 8.82321 7.91488C9.86124 7.97629 10.8813 8.21355 11.8399 8.61654C12.6049 8.95321 13.4082 9.18988 14.2332 9.31988C15.1432 9.12924 16.0325 8.85013 16.8882 8.48654C17.901 8.0911 18.9733 7.86965 20.0599 7.83154C20.2049 7.83154 20.3482 7.83154 20.4865 7.84821C22.8699 7.91654 25.0865 9.08654 26.4865 11.0149C25.3939 11.5993 24.4848 12.4752 23.8601 13.5453C23.2355 14.6154 22.9198 15.8378 22.9482 17.0765C22.9373 18.0238 23.1273 18.9625 23.5057 19.831C23.884 20.6994 24.4421 21.4778 25.1432 22.1149C25.7815 22.7228 26.5246 23.2101 27.3365 23.5532C27.1699 24.0532 26.9782 24.5365 26.7749 25.0232C26.3132 26.0986 25.7436 27.1244 25.0749 28.0849C24.4425 29.047 23.7065 29.9368 22.8799 30.7382C22.1259 31.4863 21.1209 31.9277 20.0599 31.9765C19.1605 31.9367 18.2769 31.7257 17.4565 31.3549C16.5719 30.9695 15.6212 30.7584 14.6565 30.7332C13.6647 30.7528 12.6859 30.9627 11.7732 31.3515C10.985 31.7072 10.1428 31.9286 9.28155 32.0065L9.15655 32.0099ZM14.4065 7.83154C14.2815 7.83154 14.1565 7.83154 14.0315 7.81654C14.0053 7.61816 13.9913 7.41832 13.9899 7.21821C14.0444 5.55343 14.695 3.9636 15.8232 2.73821C16.4543 2.03397 17.2191 1.46231 18.0732 1.05654C18.8692 0.6468 19.739 0.400304 20.6315 0.331543C20.6565 0.549876 20.6565 0.76321 20.6565 0.966543C20.6331 2.60515 20.0174 4.17992 18.9232 5.39988C18.3934 6.11024 17.7146 6.69603 16.9343 7.11612C16.154 7.5362 15.2912 7.78039 14.4065 7.83154Z" fill="white"/>
</svg>
