<svg width="30" height="32" viewBox="0 0 30 32" fill="none" xmlns="http://www.w3.org/2000/svg">
<path d="M0.375 2.1831V29.8159C0.375185 29.8759 0.393066 29.9344 0.426401 29.9843C0.459735 30.0341 0.507039 30.073 0.562381 30.096C0.617723 30.1191 0.67864 30.1253 0.737492 30.1138C0.796344 30.1024 0.850512 30.0739 0.893203 30.0318L15.2812 16.0002L0.893203 1.96724C0.850512 1.92515 0.796344 1.8966 0.737492 1.88517C0.67864 1.87374 0.617723 1.87994 0.562381 1.903C0.507039 1.92605 0.459735 1.96493 0.426401 2.01476C0.393066 2.06459 0.375185 2.12315 0.375 2.1831ZM21.3141 10.2346L3.27328 0.29521L3.26203 0.288882C2.95125 0.120132 2.65594 0.5406 2.91047 0.785288L17.0524 14.3078L21.3141 10.2346ZM2.91188 31.2151C2.65594 31.4598 2.95125 31.8803 3.26344 31.7115L3.27469 31.7052L21.3141 21.7658L17.0524 17.6912L2.91188 31.2151ZM28.597 14.2424L23.5591 11.4679L18.8222 16.0002L23.5591 20.5304L28.597 17.758C29.9674 17.0008 29.9674 14.9997 28.597 14.2424Z" fill="white"/>
</svg>
