<svg width="40" height="40" viewBox="0 0 40 40" fill="none" xmlns="http://www.w3.org/2000/svg">
<rect width="40" height="40" fill="#02EC87" fill-opacity="0.2"/>
<path d="M20 11C14.5 11 10 14.58 10 19C10.0251 20.0627 10.2846 21.1067 10.76 22.0575C11.2354 23.0083 11.9149 23.8423 12.75 24.5C12.75 25.1 12.33 26.67 10 29C12.37 28.89 14.64 28 16.47 26.5C17.61 26.83 18.81 27 20 27C25.5 27 30 23.42 30 19C30 14.58 25.5 11 20 11ZM20 25C15.58 25 12 22.31 12 19C12 15.69 15.58 13 20 13C24.42 13 28 15.69 28 19C28 22.31 24.42 25 20 25ZM25 20V18H23V20H25ZM21 20V18H19V20H21ZM17 20V18H15V20H17Z" fill="#0A535A"/>
</svg>
