<svg width="40" height="40" viewBox="0 0 40 40" fill="none" xmlns="http://www.w3.org/2000/svg">
<rect width="40" height="40" fill="#02EC87" fill-opacity="0.2"/>
<path d="M19 26H21V24H19V26ZM20 10C18.6868 10 17.3864 10.2587 16.1732 10.7612C14.9599 11.2638 13.8575 12.0003 12.9289 12.9289C11.0536 14.8043 10 17.3478 10 20C10 22.6522 11.0536 25.1957 12.9289 27.0711C13.8575 27.9997 14.9599 28.7362 16.1732 29.2388C17.3864 29.7413 18.6868 30 20 30C22.6522 30 25.1957 28.9464 27.0711 27.0711C28.9464 25.1957 30 22.6522 30 20C30 18.6868 29.7413 17.3864 29.2388 16.1732C28.7362 14.9599 27.9997 13.8575 27.0711 12.9289C26.1425 12.0003 25.0401 11.2638 23.8268 10.7612C22.6136 10.2587 21.3132 10 20 10M20 28C15.59 28 12 24.41 12 20C12 15.59 15.59 12 20 12C24.41 12 28 15.59 28 20C28 24.41 24.41 28 20 28ZM20 14C18.9391 14 17.9217 14.4214 17.1716 15.1716C16.4214 15.9217 16 16.9391 16 18H18C18 17.4696 18.2107 16.9609 18.5858 16.5858C18.9609 16.2107 19.4696 16 20 16C20.5304 16 21.0391 16.2107 21.4142 16.5858C21.7893 16.9609 22 17.4696 22 18C22 20 19 19.75 19 23H21C21 20.75 24 20.5 24 18C24 16.9391 23.5786 15.9217 22.8284 15.1716C22.0783 14.4214 21.0609 14 20 14Z" fill="#0A535A"/>
</svg>
