<svg width="25" height="24" viewBox="0 0 25 24" fill="none" xmlns="http://www.w3.org/2000/svg">
<g clip-path="url(#clip0_635_1251)">
<path d="M12.7314 0C9.47495 0 9.06544 0.015 7.78595 0.072C6.50645 0.132 5.63495 0.333 4.87145 0.63C4.07059 0.931229 3.34518 1.40374 2.74595 2.0145C2.13556 2.61404 1.66311 3.33936 1.36145 4.14C1.06445 4.902 0.861945 5.775 0.803445 7.05C0.746445 8.3325 0.731445 8.7405 0.731445 12.0015C0.731445 15.2595 0.746445 15.6675 0.803445 16.947C0.863445 18.225 1.06445 19.0965 1.36145 19.86C1.66895 20.649 2.07845 21.318 2.74595 21.9855C3.41195 22.653 4.08095 23.064 4.86995 23.37C5.63495 23.667 6.50495 23.8695 7.78295 23.928C9.06395 23.985 9.47194 24 12.7314 24C15.9909 24 16.3974 23.985 17.6784 23.928C18.9549 23.868 19.8294 23.667 20.5929 23.37C21.3933 23.0686 22.1182 22.5961 22.7169 21.9855C23.3844 21.318 23.7939 20.649 24.1014 19.86C24.3969 19.0965 24.5994 18.225 24.6594 16.947C24.7164 15.6675 24.7314 15.2595 24.7314 12C24.7314 8.7405 24.7164 8.3325 24.6594 7.0515C24.5994 5.775 24.3969 4.902 24.1014 4.14C23.7998 3.33934 23.3274 2.61401 22.7169 2.0145C22.1179 1.40351 21.3924 0.930968 20.5914 0.63C19.8264 0.333 18.9534 0.1305 17.6769 0.072C16.3959 0.015 15.9894 0 12.7284 0H12.7329H12.7314ZM11.6559 2.163H12.7329C15.9369 2.163 16.3164 2.1735 17.5809 2.232C18.7509 2.2845 19.3869 2.481 19.8099 2.6445C20.3694 2.862 20.7699 3.123 21.1899 3.543C21.6099 3.963 21.8694 4.362 22.0869 4.923C22.2519 5.3445 22.4469 5.9805 22.4994 7.1505C22.5579 8.415 22.5699 8.7945 22.5699 11.997C22.5699 15.1995 22.5579 15.5805 22.4994 16.845C22.4469 18.015 22.2504 18.6495 22.0869 19.0725C21.8946 19.5935 21.5875 20.0647 21.1884 20.451C20.7684 20.871 20.3694 21.1305 19.8084 21.348C19.3884 21.513 18.7524 21.708 17.5809 21.762C16.3164 21.819 15.9369 21.8325 12.7329 21.8325C9.52895 21.8325 9.14795 21.819 7.88345 21.762C6.71345 21.708 6.07895 21.513 5.65595 21.348C5.13469 21.1559 4.66313 20.8494 4.27595 20.451C3.87657 20.0641 3.56903 19.5925 3.37595 19.071C3.21245 18.6495 3.01595 18.0135 2.96345 16.8435C2.90645 15.579 2.89445 15.1995 2.89445 11.994C2.89445 8.79 2.90645 8.412 2.96345 7.1475C3.01745 5.9775 3.21245 5.3415 3.37745 4.9185C3.59495 4.359 3.85595 3.9585 4.27595 3.5385C4.69595 3.1185 5.09495 2.859 5.65595 2.6415C6.07895 2.4765 6.71345 2.2815 7.88345 2.2275C8.99045 2.1765 9.41945 2.1615 11.6559 2.16V2.163ZM19.1379 4.155C18.9488 4.155 18.7616 4.19225 18.5869 4.26461C18.4122 4.33698 18.2534 4.44305 18.1197 4.57677C17.986 4.71048 17.8799 4.86923 17.8076 5.04394C17.7352 5.21864 17.6979 5.4059 17.6979 5.595C17.6979 5.7841 17.7352 5.97135 17.8076 6.14606C17.8799 6.32077 17.986 6.47952 18.1197 6.61323C18.2534 6.74695 18.4122 6.85302 18.5869 6.92539C18.7616 6.99775 18.9488 7.035 19.1379 7.035C19.5199 7.035 19.8861 6.88329 20.1562 6.61323C20.4262 6.34318 20.5779 5.97691 20.5779 5.595C20.5779 5.21309 20.4262 4.84682 20.1562 4.57677C19.8861 4.30671 19.5199 4.155 19.1379 4.155ZM12.7329 5.838C11.9156 5.82525 11.1038 5.97523 10.3449 6.27921C9.58604 6.58319 8.89522 7.03511 8.31267 7.60863C7.73012 8.18216 7.26749 8.86585 6.95171 9.61989C6.63592 10.3739 6.4733 11.1833 6.4733 12.0007C6.4733 12.8182 6.63592 13.6276 6.95171 14.3816C7.26749 15.1356 7.73012 15.8193 8.31267 16.3929C8.89522 16.9664 9.58604 17.4183 10.3449 17.7223C11.1038 18.0263 11.9156 18.1763 12.7329 18.1635C14.3508 18.1383 15.8938 17.4779 17.0289 16.3249C18.1641 15.1719 18.8003 13.6188 18.8003 12.0007C18.8003 10.3827 18.1641 8.82962 17.0289 7.67662C15.8938 6.52363 14.3508 5.86324 12.7329 5.838ZM12.7329 7.9995C13.7939 7.9995 14.8115 8.42098 15.5617 9.17122C16.312 9.92146 16.7334 10.939 16.7334 12C16.7334 13.061 16.312 14.0785 15.5617 14.8288C14.8115 15.579 13.7939 16.0005 12.7329 16.0005C11.6719 16.0005 10.6544 15.579 9.90416 14.8288C9.15392 14.0785 8.73245 13.061 8.73245 12C8.73245 10.939 9.15392 9.92146 9.90416 9.17122C10.6544 8.42098 11.6719 7.9995 12.7329 7.9995Z" fill="white"/>
</g>
<defs>
<clipPath id="clip0_635_1251">
<rect width="24" height="24" fill="white" transform="translate(0.731445)"/>
</clipPath>
</defs>
</svg>
