<svg width="40" height="40" viewBox="0 0 40 40" fill="none" xmlns="http://www.w3.org/2000/svg">
<rect width="40" height="40" fill="#02EC87" fill-opacity="0.2"/>
<path d="M16.56 19.9C16.8409 20.1813 16.9987 20.5625 16.9987 20.96C16.9987 21.3575 16.8409 21.7388 16.56 22.02L15.586 22.996H24C24.3978 22.996 24.7794 23.1541 25.0607 23.4354C25.342 23.7167 25.5 24.0982 25.5 24.496C25.5 24.8938 25.342 25.2754 25.0607 25.5567C24.7794 25.838 24.3978 25.996 24 25.996H15.586L16.561 26.97C16.8424 27.2514 17.0005 27.6331 17.0005 28.031C17.0005 28.429 16.8424 28.8106 16.561 29.092C16.2796 29.3734 15.898 29.5315 15.5 29.5315C15.1021 29.5315 14.7204 29.3734 14.439 29.092L10.904 25.556C10.6228 25.2747 10.4648 24.8933 10.4648 24.4955C10.4648 24.0978 10.6228 23.7163 10.904 23.435L14.439 19.899C14.5783 19.7596 14.7437 19.6491 14.9258 19.5736C15.1078 19.4982 15.303 19.4593 15.5 19.4593C15.6971 19.4593 15.8922 19.4982 16.0743 19.5736C16.2563 19.6491 16.4217 19.7596 16.561 19.899L16.56 19.9ZM23.44 10.9C23.7024 10.6374 24.0528 10.4814 24.4235 10.4622C24.7942 10.443 25.1589 10.5619 25.447 10.796L25.561 10.899L29.096 14.435C29.3585 14.6975 29.5143 15.048 29.5333 15.4187C29.5523 15.7894 29.4332 16.154 29.199 16.442L29.096 16.556L25.561 20.092C25.2898 20.3673 24.9228 20.5272 24.5365 20.5385C24.1502 20.5499 23.7745 20.4117 23.4876 20.1528C23.2007 19.8939 23.0249 19.5342 22.9966 19.1488C22.9684 18.7634 23.09 18.382 23.336 18.084L23.439 17.97L24.414 16.996H16C15.6129 16.9987 15.2397 16.8516 14.9585 16.5855C14.6774 16.3193 14.51 15.9548 14.4914 15.5681C14.4728 15.1814 14.6044 14.8025 14.8588 14.5106C15.1131 14.2188 15.4704 14.0365 15.856 14.002L16 13.996H24.414L23.439 13.021C23.2996 12.8817 23.1891 12.7163 23.1136 12.5343C23.0382 12.3522 22.9993 12.1571 22.9993 11.96C22.9993 11.763 23.0382 11.5678 23.1136 11.3858C23.1891 11.2037 23.2996 11.0383 23.439 10.899L23.44 10.9Z" fill="#0A535A"/>
</svg>
