<svg width="40" height="40" viewBox="0 0 40 40" fill="none" xmlns="http://www.w3.org/2000/svg">
<rect width="40" height="40" fill="#02EC87" fill-opacity="0.2"/>
<path d="M27.3172 24.4038C26.7306 23.8167 26.0451 23.3375 25.2922 22.9882C26.354 22.1281 27.0313 20.8156 27.0313 19.3437C27.0313 16.7468 24.8657 14.6163 22.2688 14.6562C19.7118 14.696 17.6516 16.7796 17.6516 19.3437C17.6516 20.8156 18.3313 22.1281 19.3907 22.9882C18.6377 23.3373 17.9521 23.8165 17.3657 24.4038C16.086 25.6859 15.3594 27.3781 15.3126 29.1828C15.3119 29.2078 15.3163 29.2327 15.3255 29.2559C15.3346 29.2792 15.3483 29.3005 15.3658 29.3184C15.3833 29.3363 15.4041 29.3505 15.4272 29.3602C15.4503 29.3699 15.475 29.3749 15.5001 29.3749H16.8126C16.9133 29.3749 16.9977 29.2953 17.0001 29.1945C17.0446 27.8351 17.5954 26.5624 18.5633 25.5968C19.0587 25.0989 19.6478 24.7041 20.2968 24.4353C20.9457 24.1666 21.6414 24.0292 22.3438 24.0312C23.7712 24.0312 25.1141 24.5867 26.1243 25.5968C27.0899 26.5624 27.6407 27.8351 27.6876 29.1945C27.6899 29.2953 27.7743 29.3749 27.8751 29.3749H29.1876C29.2126 29.3749 29.2374 29.3699 29.2604 29.3602C29.2835 29.3505 29.3044 29.3363 29.3218 29.3184C29.3393 29.3005 29.353 29.2792 29.3622 29.2559C29.3713 29.2327 29.3757 29.2078 29.3751 29.1828C29.3282 27.3781 28.6016 25.6859 27.3172 24.4038ZM22.3438 22.3437C21.5422 22.3437 20.7876 22.032 20.2227 21.4648C19.9392 21.1835 19.7153 20.8481 19.5643 20.4784C19.4133 20.1088 19.3383 19.7125 19.3438 19.3132C19.3508 18.5445 19.6579 17.8015 20.1946 17.2507C20.7571 16.6742 21.5094 16.3531 22.3133 16.3437C23.1079 16.3367 23.879 16.646 24.4462 17.2015C25.0274 17.771 25.3462 18.5328 25.3462 19.3437C25.3462 20.1453 25.0344 20.8976 24.4672 21.4648C24.189 21.7444 23.858 21.966 23.4935 22.1169C23.1291 22.2678 22.7383 22.3448 22.3438 22.3437ZM16.4727 19.9624C16.4516 19.7585 16.4399 19.5523 16.4399 19.3437C16.4399 18.971 16.4751 18.6078 16.5407 18.2538C16.5571 18.1695 16.5126 18.0828 16.4352 18.0476C16.1165 17.9046 15.8235 17.7078 15.5704 17.4593C15.2721 17.1701 15.0374 16.8219 14.8812 16.4369C14.7251 16.0519 14.6508 15.6386 14.6633 15.2234C14.6844 14.471 14.9868 13.7562 15.5141 13.2171C16.093 12.6242 16.8712 12.3007 17.6985 12.3101C18.4462 12.3171 19.168 12.6054 19.7141 13.1163C19.8993 13.2898 20.0587 13.482 20.1922 13.6882C20.2391 13.7609 20.3305 13.7913 20.4102 13.7632C20.8227 13.6203 21.2587 13.5195 21.7063 13.4726C21.8376 13.4585 21.9126 13.3179 21.854 13.2007C21.0922 11.6937 19.536 10.6531 17.736 10.6249C15.1368 10.5851 12.9712 12.7156 12.9712 15.3101C12.9712 16.782 13.6485 18.0945 14.7102 18.9546C13.9649 19.2992 13.2782 19.7749 12.6829 20.3703C11.3985 21.6523 10.6719 23.3445 10.6251 25.1515C10.6244 25.1765 10.6288 25.2014 10.638 25.2247C10.6471 25.248 10.6608 25.2692 10.6783 25.2871C10.6958 25.305 10.7166 25.3193 10.7397 25.329C10.7628 25.3387 10.7875 25.3437 10.8126 25.3437H12.1274C12.2282 25.3437 12.3126 25.264 12.3149 25.1632C12.3594 23.8038 12.9102 22.5312 13.8782 21.5656C14.5672 20.8765 15.411 20.3984 16.3321 20.1663C16.4235 20.1429 16.4844 20.0562 16.4727 19.9624Z" fill="#0A535A"/>
</svg>
