<svg width="25" height="25" viewBox="0 0 25 25" fill="none" xmlns="http://www.w3.org/2000/svg">
<path d="M24.8652 3.83317C23.9826 4.31424 23.0345 4.6393 22.0378 4.78622C23.0662 4.02923 23.8357 2.83781 24.2025 1.43428C23.2362 2.14028 22.1787 2.63723 21.0759 2.90351C20.3343 1.92948 19.352 1.28387 18.2816 1.06693C17.2111 0.849988 16.1124 1.07385 15.156 1.70375C14.1996 2.33365 13.4389 3.33436 12.9922 4.5505C12.5455 5.76664 12.4377 7.13018 12.6855 8.42942C10.7277 8.30849 8.81234 7.68251 7.06387 6.59209C5.31539 5.50168 3.77284 3.9712 2.53633 2.09998C2.11354 2.99713 1.87043 4.0373 1.87043 5.14508C1.86996 6.14234 2.0696 7.12432 2.45165 8.0039C2.83369 8.88348 3.38632 9.63346 4.06051 10.1873C3.27863 10.1567 2.514 9.89681 1.83027 9.42928V9.50729C1.83019 10.906 2.2235 12.2616 2.94347 13.3442C3.66344 14.4268 4.66571 15.1696 5.78023 15.4467C5.05491 15.6881 4.29446 15.7237 3.55633 15.5507C3.87078 16.7542 4.4833 17.8066 5.30815 18.5606C6.13299 19.3146 7.12887 19.7324 8.15635 19.7556C6.41214 21.4399 4.25805 22.3535 2.04061 22.3495C1.64781 22.3496 1.25534 22.3214 0.865234 22.265C3.11607 24.0452 5.7362 24.99 8.41214 24.9863C17.4705 24.9863 22.4225 15.7574 22.4225 7.75331C22.4225 7.49326 22.4172 7.23062 22.4077 6.97058C23.371 6.11371 24.2024 5.05263 24.8631 3.83707L24.8652 3.83317Z" fill="white"/>
</svg>
