<svg width="40" height="40" viewBox="0 0 40 40" fill="none" xmlns="http://www.w3.org/2000/svg">
<rect width="40" height="40" fill="#02EC87" fill-opacity="0.2"/>
<path d="M30.125 11C30.3828 11 30.625 11.0469 30.8516 11.1406C31.0781 11.2344 31.2773 11.3711 31.4492 11.5508C31.6211 11.7305 31.7539 11.9297 31.8477 12.1484C31.9414 12.3672 31.9922 12.6094 32 12.875V25.625C32 25.8828 31.9531 26.125 31.8594 26.3516C31.7656 26.5781 31.6289 26.7773 31.4492 26.9492C31.2695 27.1211 31.0703 27.2539 30.8516 27.3477C30.6328 27.4414 30.3906 27.4922 30.125 27.5H9.875C9.61719 27.5 9.375 27.4531 9.14844 27.3594C8.92187 27.2656 8.72266 27.1289 8.55078 26.9492C8.37891 26.7695 8.24609 26.5703 8.15234 26.3516C8.05859 26.1328 8.00781 25.8906 8 25.625V12.875C8 12.6172 8.04688 12.375 8.14062 12.1484C8.23438 11.9219 8.37109 11.7227 8.55078 11.5508C8.73047 11.3789 8.92969 11.2461 9.14844 11.1523C9.36719 11.0586 9.60938 11.0078 9.875 11H30.125ZM9.875 12.5C9.76563 12.5 9.67578 12.5352 9.60547 12.6055C9.53516 12.6758 9.5 12.7656 9.5 12.875V15.5H30.5V12.875C30.5 12.7656 30.4648 12.6758 30.3945 12.6055C30.3242 12.5352 30.2344 12.5 30.125 12.5H9.875ZM30.125 26C30.2344 26 30.3242 25.9648 30.3945 25.8945C30.4648 25.8242 30.5 25.7344 30.5 25.625V17H9.5V25.625C9.5 25.7344 9.53516 25.8242 9.60547 25.8945C9.67578 25.9648 9.76563 26 9.875 26H30.125ZM24.5 21.5H27.5V23H24.5V21.5Z" fill="#0A535A"/>
</svg>
